<?xml version="1.0" encoding="UTF-8"?>
<!-- Generator: visioncortex VTracer 0.6.3 -->
<svg version="1.1" xmlns="http://www.w3.org/2000/svg" width="589" height="553">
<path d="M0 0 C194.37 0 388.74 0 589 0 C589 182.49 589 364.98 589 553 C394.63 553 200.26 553 0 553 C0 370.51 0 188.02 0 0 Z " fill="#CDC1A7" transform="translate(0,0)"/>
<path d="M0 0 C14.19 0 28.38 0 43 0 C43 3.96 43 7.92 43 12 C46.3 12 49.6 12 53 12 C53 15.63 53 19.26 53 23 C56.96 23 60.92 23 65 23 C65 26.3 65 29.6 65 33 C68.63 33 72.26 33 76 33 C76 36.3 76 39.6 76 43 C82.93 43 89.86 43 97 43 C97 46.63 97 50.26 97 54 C107.89 54 118.78 54 130 54 C130 57.96 130 61.92 130 66 C133.3 66 136.6 66 140 66 C140 69.3 140 72.6 140 76 C136.7 76 133.4 76 130 76 C130 79.63 130 83.26 130 87 C133.3 87 136.6 87 140 87 C140 90.63 140 94.26 140 98 C143.63 98 147.26 98 151 98 C151 108.56 151 119.12 151 130 C147.7 130.33 144.4 130.66 141 131 C140.67 148.49 140.34 165.98 140 184 C136.37 184 132.74 184 129 184 C129 187.3 129 190.6 129 194 C125.04 194 121.08 194 117 194 C117 208.52 117 223.04 117 238 C114.03 238 111.06 238 108 238 C108 234.7 108 231.4 108 228 C104.04 228 100.08 228 96 228 C96 234.6 96 241.2 96 248 C93.03 248.33 90.06 248.66 87 249 C86.67 252.3 86.34 255.6 86 259 C82.7 259 79.4 259 76 259 C76 280.45 76 301.9 76 324 C79.3 324 82.6 324 86 324 C86 331.59 86 339.18 86 347 C89.3 347 92.6 347 96 347 C96 350.3 96 353.6 96 357 C92.7 357 89.4 357 86 357 C86 360.3 86 363.6 86 367 C71.81 367 57.62 367 43 367 C43 363.7 43 360.4 43 357 C33.1 357.33 23.2 357.66 13 358 C12.67 360.97 12.34 363.94 12 367 C0.78 367 -10.44 367 -22 367 C-22 370.63 -22 374.26 -22 378 C-25.63 378 -29.26 378 -33 378 C-33 381.63 -33 385.26 -33 389 C-35.97 389 -38.94 389 -42 389 C-42.33 385.7 -42.66 382.4 -43 379 C-57.19 378.67 -71.38 378.34 -86 378 C-86 381.96 -86 385.92 -86 390 C-89.3 390 -92.6 390 -96 390 C-96 393.63 -96 397.26 -96 401 C-92.7 401 -89.4 401 -86 401 C-86.03 398.56 -86.03 398.56 -86.06 396.06 C-86.08 394.38 -86.07 392.69 -86 391 C-85 390 -85 390 -81.03 389.89 C-79.26 389.89 -77.49 389.89 -75.71 389.9 C-74.78 389.9 -73.85 389.91 -72.89 389.91 C-69.91 389.91 -66.92 389.92 -63.94 389.94 C-61.92 389.94 -59.9 389.95 -57.88 389.95 C-52.92 389.96 -47.96 389.98 -43 390 C-43 393.3 -43 396.6 -43 400 C-46.96 400 -50.92 400 -55 400 C-55 403.63 -55 407.26 -55 411 C-61.93 411 -68.86 411 -76 411 C-76 414.3 -76 417.6 -76 421 C-82.6 421 -89.2 421 -96 421 C-96.77 414.27 -97.1 407.77 -97 401 C-100.96 401 -104.92 401 -109 401 C-109 407.6 -109 414.2 -109 421 C-112.3 421 -115.6 421 -119 421 C-119 424.63 -119 428.26 -119 432 C-125.93 432 -132.86 432 -140 432 C-140 435.96 -140 439.92 -140 444 C-143.63 444 -147.26 444 -151 444 C-151 450.93 -151 457.86 -151 465 C-154.96 465 -158.92 465 -163 465 C-163 468.3 -163 471.6 -163 475 C-173.23 475 -183.46 475 -194 475 C-194 457.51 -194 440.02 -194 422 C-190.7 421.67 -187.4 421.34 -184 421 C-183.67 414.4 -183.34 407.8 -183 401 C-179.7 400.67 -176.4 400.34 -173 400 C-172.67 396.7 -172.34 393.4 -172 390 C-169.03 390 -166.06 390 -163 390 C-163 382.74 -163 375.48 -163 368 C-159.04 368 -155.08 368 -151 368 C-151 361.07 -151 354.14 -151 347 C-153.69 347.03 -153.69 347.03 -156.44 347.06 C-158.29 347.08 -160.15 347.07 -162 347 C-163 346 -163 346 -163.1 343.71 C-163.07 341.14 -163.03 338.57 -163 336 C-166.3 336 -169.6 336 -173 336 C-173 328.41 -173 320.82 -173 313 C-176.63 313 -180.26 313 -184 313 C-184 309.7 -184 306.4 -184 303 C-187.3 303 -190.6 303 -194 303 C-194 299.7 -194 296.4 -194 293 C-197.63 293 -201.26 293 -205 293 C-205 289.37 -205 285.74 -205 282 C-208.96 282 -212.92 282 -217 282 C-217 278.04 -217 274.08 -217 270 C-220.3 270 -223.6 270 -227 270 C-227 266.7 -227 263.4 -227 260 C-230.63 260 -234.26 260 -238 260 C-238 256.37 -238 252.74 -238 249 C-241.3 249 -244.6 249 -248 249 C-248.1 241.91 -247.72 235.05 -247 228 C-243.7 228 -240.4 228 -237 228 C-237 220.74 -237 213.48 -237 206 C-233.7 206 -230.4 206 -227 206 C-227 199.07 -227 192.14 -227 185 C-219.74 184.67 -212.48 184.34 -205 184 C-204.67 180.7 -204.34 177.4 -204 174 C-190.47 174 -176.94 174 -163 174 C-163 177.63 -163 181.26 -163 185 C-159.04 184.67 -155.08 184.34 -151 184 C-150.67 180.7 -150.34 177.4 -150 174 C-146.7 174 -143.4 174 -140 174 C-140 170.04 -140 166.08 -140 162 C-133.07 162 -126.14 162 -119 162 C-119 158.7 -119 155.4 -119 152 C-115.7 152 -112.4 152 -109 152 C-109 162.56 -109 173.12 -109 184 C-112.3 184 -115.6 184 -119 184 C-119 194.56 -119 205.12 -119 216 C-115.7 216 -112.4 216 -109 216 C-109 226.89 -109 237.78 -109 249 C-112.3 249 -115.6 249 -119 249 C-119 252.3 -119 255.6 -119 259 C-115.37 259 -111.74 259 -108 259 C-108 255.7 -108 252.4 -108 249 C-104.04 249 -100.08 249 -96 249 C-96 242.07 -96 235.14 -96 228 C-92.7 228 -89.4 228 -86 228 C-86 224.04 -86 220.08 -86 216 C-79.07 216 -72.14 216 -65 216 C-65 212.7 -65 209.4 -65 206 C-16.99 205.5 -16.99 205.5 32 205 C32.33 201.7 32.66 198.4 33 195 C36.3 195 39.6 195 43 195 C43 191.7 43 188.4 43 185 C46.3 184.67 49.6 184.34 53 184 C53.33 180.7 53.66 177.4 54 174 C57.96 174 61.92 174 66 174 C66 163.11 66 152.22 66 141 C69.3 141 72.6 141 76 141 C76 126.48 76 111.96 76 97 C72.7 97 69.4 97 66 97 C66 93.7 66 90.4 66 87 C62.04 87 58.08 87 54 87 C53.67 83.7 53.34 80.4 53 77 C49.7 76.67 46.4 76.34 43 76 C43 72.7 43 69.4 43 66 C28.48 66 13.96 66 -1 66 C-1 69.3 -1 72.6 -1 76 C-4.3 76 -7.6 76 -11 76 C-11 79.63 -11 83.26 -11 87 C-14.63 87 -18.26 87 -22 87 C-22 90.3 -22 93.6 -22 97 C-28.6 97 -35.2 97 -42 97 C-42.33 90.4 -42.66 83.8 -43 77 C-46.63 76.67 -50.26 76.34 -54 76 C-54 65.44 -54 54.88 -54 44 C-50.37 43.67 -46.74 43.34 -43 43 C-42.67 36.4 -42.34 29.8 -42 23 C-32.1 22.51 -32.1 22.51 -22 22 C-21.67 18.7 -21.34 15.4 -21 12 C-14.07 12 -7.14 12 0 12 C0 8.04 0 4.08 0 0 Z " fill="#FEFEFD" transform="translate(347,29)"/>
<path d="M0 0 C3.63 0 7.26 0 11 0 C11 3.96 11 7.92 11 12 C14.3 12 17.6 12 21 12 C21 15.63 21 19.26 21 23 C17.7 23 14.4 23 11 23 C11 26.3 11 29.6 11 33 C14.3 33 17.6 33 21 33 C21 36.3 21 39.6 21 43 C24.63 43 28.26 43 32 43 C32 54.22 32 65.44 32 77 C28.37 77 24.74 77 21 77 C21 94.82 21 112.64 21 131 C17.7 131 14.4 131 11 131 C11 134.63 11 138.26 11 142 C7.7 142 4.4 142 1 142 C1.01 143.27 1.01 144.53 1.02 145.84 C1.03 150.52 1.05 155.21 1.05 159.89 C1.06 161.92 1.07 163.95 1.08 165.98 C1.09 168.89 1.09 171.8 1.1 174.71 C1.1 175.63 1.11 176.54 1.11 177.48 C1.11 179.66 1.06 181.83 1 184 C0 185 0 185 -2.5 185.1 C-4.02 185.08 -4.02 185.08 -5.56 185.06 C-6.57 185.05 -7.59 185.04 -8.63 185.04 C-9.8 185.02 -9.8 185.02 -11 185 C-11 188.3 -11 191.6 -11 195 C-18.26 195 -25.52 195 -33 195 C-33 198.63 -33 202.26 -33 206 C-36.3 206 -39.6 206 -43 206 C-43 227.12 -43 248.24 -43 270 C-39.37 270 -35.74 270 -32 270 C-32 277.26 -32 284.52 -32 292 C-29.03 292 -26.06 292 -23 292 C-22 293 -22 293 -21.89 294.95 C-21.89 296.2 -21.89 296.2 -21.9 297.47 C-21.91 298.82 -21.91 298.82 -21.91 300.2 C-21.92 301.62 -21.92 301.62 -21.94 303.06 C-21.94 304.01 -21.95 304.96 -21.95 305.94 C-21.96 308.29 -21.98 310.65 -22 313 C-18.7 313 -15.4 313 -12 313 C-12 316.63 -12 320.26 -12 324 C-8.04 324 -4.08 324 0 324 C0 345.78 0 367.56 0 390 C-3.96 390 -7.92 390 -12 390 C-12 393.63 -12 397.26 -12 401 C-15.3 401 -18.6 401 -22 401 C-22 404.3 -22 407.6 -22 411 C-29.26 411 -36.52 411 -44 411 C-44 407.7 -44 404.4 -44 401 C-47.3 401 -50.6 401 -54 401 C-54 397.37 -54 393.74 -54 390 C-57.63 390 -61.26 390 -65 390 C-65 375.81 -65 361.62 -65 347 C-72.26 347 -79.52 347 -87 347 C-87 343.37 -87 339.74 -87 336 C-75.78 336 -64.56 336 -53 336 C-53 339.3 -53 342.6 -53 346 C-52.34 346 -51.68 346 -51 346 C-51.33 356.89 -51.66 367.78 -52 379 C-50.68 379 -49.36 379 -48 379 C-48 375.04 -48 371.08 -48 367 C-43.29 365.12 -40.08 364.75 -35.19 364.88 C-34.49 364.88 -33.8 364.89 -33.09 364.9 C-31.39 364.93 -29.7 364.96 -28 365 C-28 363.68 -28 362.36 -28 361 C-23.38 361 -18.76 361 -14 361 C-14.02 359.14 -14.04 357.29 -14.06 355.38 C-14.07 345.24 -13.51 335.12 -13 325 C-16.3 325 -19.6 325 -23 325 C-23 321.37 -23 317.74 -23 314 C-26.3 314 -29.6 314 -33 314 C-33 307.07 -33 300.14 -33 293 C-36.63 293 -40.26 293 -44 293 C-44 285.41 -44 277.82 -44 270 C-47.3 270 -50.6 270 -54 270 C-54 248.55 -54 227.1 -54 205 C-50.7 205 -47.4 205 -44 205 C-44.02 203.37 -44.04 201.74 -44.06 200.06 C-44.08 198.38 -44.07 196.69 -44 195 C-43.67 194.67 -43.34 194.34 -43 194 C-40.03 194 -37.06 194 -34 194 C-34 187.4 -34 180.8 -34 174 C-30.04 174 -26.08 174 -22 174 C-22 177.3 -22 180.6 -22 184 C-19.03 184 -16.06 184 -13 184 C-13 169.48 -13 154.96 -13 140 C-9.04 140 -5.08 140 -1 140 C-1 136.7 -1 133.4 -1 130 C2.63 130 6.26 130 10 130 C9.99 128.4 9.99 126.8 9.98 125.15 C9.97 119.24 9.95 113.32 9.95 107.41 C9.94 104.85 9.93 102.28 9.92 99.72 C9.91 96.04 9.91 92.37 9.9 88.69 C9.9 87.54 9.89 86.38 9.89 85.19 C9.89 84.13 9.89 83.07 9.89 81.98 C9.88 81.04 9.88 80.1 9.88 79.13 C10 77 10 77 11 76 C14.3 76 17.6 76 21 76 C21 65.44 21 54.88 21 44 C17.37 44 13.74 44 10 44 C10 40.37 10 36.74 10 33 C6.7 33 3.4 33 0 33 C0 29.37 0 25.74 0 22 C3.3 22 6.6 22 10 22 C10 18.7 10 15.4 10 12 C6.7 12 3.4 12 0 12 C0 8.04 0 4.08 0 0 Z " fill="#5C5852" transform="translate(477,83)"/>
<path d="M0 0 C3.3 0 6.6 0 10 0 C10 3.3 10 6.6 10 10 C13.3 10 16.6 10 20 10 C20 13.63 20 17.26 20 21 C23.63 21 27.26 21 31 21 C31 24.3 31 27.6 31 31 C34.3 31 37.6 31 41 31 C41 34.96 41 38.92 41 43 C44.96 43 48.92 43 53 43 C53 46.63 53 50.26 53 54 C56.63 54 60.26 54 64 54 C64 57.3 64 60.6 64 64 C67.3 64 70.6 64 74 64 C74 67.3 74 70.6 74 74 C77.63 74 81.26 74 85 74 C85 81.59 85 89.18 85 97 C88.3 97 91.6 97 95 97 C95.5 101.95 95.5 101.95 96 107 C101.44 107.5 101.44 107.5 107 108 C107 114.93 107 121.86 107 129 C103.04 129 99.08 129 95 129 C95 136.26 95 143.52 95 151 C92.03 151 89.06 151 86 151 C86 150.67 86 150.34 86 150 C88.31 149.67 90.62 149.34 93 149 C92.67 149 92.34 149 92 149 C90.68 149 89.36 149 88 149 C87.94 148.37 87.88 147.75 87.82 147.1 C87.73 146.28 87.65 145.47 87.56 144.62 C87.48 143.81 87.4 143 87.32 142.16 C87.11 139.96 87.11 139.96 86 138 C85.57 135.34 85.3 132.68 85 130 C83.05 130.03 83.05 130.03 81.06 130.06 C79.71 130.08 78.35 130.07 77 130 C76.67 129.67 76.34 129.34 76 129 C73.98 128.77 71.96 128.59 69.94 128.44 C68.83 128.35 67.73 128.27 66.59 128.18 C65.74 128.12 64.88 128.06 64 128 C64 124.7 64 121.4 64 118 C60.7 118 57.4 118 54 118 C53.67 114.7 53.34 111.4 53 108 C49.37 107.67 45.74 107.34 42 107 C41.67 103.7 41.34 100.4 41 97 C38.03 96.67 35.06 96.34 32 96 C32 88.08 32 80.16 32 72 C28.95 70.48 26.3 71.52 23 72 C22 71 22 71 21.89 69.23 C21.89 68.49 21.9 67.74 21.9 66.96 C21.91 66.16 21.91 65.35 21.91 64.51 C21.92 63.66 21.93 62.81 21.94 61.94 C21.94 61.08 21.95 60.23 21.95 59.35 C21.96 57.23 21.98 55.12 22 53 C18.37 53 14.74 53 11 53 C11 45.74 11 38.48 11 31 C7.37 31 3.74 31 0 31 C0 20.77 0 10.54 0 0 Z " fill="#ABC2D3" transform="translate(89,268)"/>
<path d="M0 0 C3.63 0 7.26 0 11 0 C11 25.41 11 50.82 11 77 C7.7 77 4.4 77 1 77 C1 87.23 1 97.46 1 108 C4.63 108 8.26 108 12 108 C12 115.26 12 122.52 12 130 C15.63 130 19.26 130 23 130 C23.5 138.91 23.5 138.91 24 148 C26.31 148 28.62 148 31 148 C31.33 147.34 31.66 146.68 32 146 C36.71 153.06 33.81 164.87 33 173 C33.64 172.99 34.28 172.98 34.93 172.96 C35.76 172.96 36.59 172.95 37.44 172.94 C38.26 172.93 39.08 172.91 39.93 172.9 C42 173 42 173 43 174 C43.07 175.69 43.08 177.38 43.06 179.06 C43.05 179.98 43.04 180.9 43.04 181.85 C43.02 182.56 43.01 183.27 43 184 C43.78 183.99 44.56 183.98 45.37 183.96 C46.38 183.96 47.39 183.95 48.44 183.94 C49.45 183.93 50.46 183.91 51.5 183.9 C54 184 54 184 55 185 C55.14 188.34 55.04 191.66 55 195 C58.3 195 61.6 195 65 195 C65 198.3 65 201.6 65 205 C65.83 204.99 66.66 204.98 67.52 204.96 C68.61 204.96 69.69 204.95 70.81 204.94 C71.89 204.93 72.97 204.91 74.08 204.9 C77 205 77 205 80 206 C82 206.04 84 206.04 86 206 C87.8 211.29 89.14 215.64 89.06 221.25 C89.05 222.14 89.04 223.03 89.04 223.95 C89.02 224.63 89.01 225.3 89 226 C90.32 225.67 91.64 225.34 93 225 C93.33 222.03 93.66 219.06 94 216 C94.33 216 94.66 216 95 216 C95.03 217.65 95.05 219.29 95.06 220.94 C95.07 221.85 95.09 222.77 95.1 223.71 C95 226 95 226 94 227 C91.67 227.04 89.33 227.04 87 227 C87.01 227.78 87.02 228.56 87.04 229.37 C87.04 230.38 87.05 231.39 87.06 232.44 C87.07 233.45 87.09 234.46 87.1 235.5 C87 238 87 238 86 239 C84.31 239.07 82.62 239.08 80.94 239.06 C80.02 239.05 79.1 239.04 78.15 239.04 C77.44 239.02 76.73 239.01 76 239 C76.01 239.6 76.01 240.2 76.02 240.82 C76.04 243.53 76.05 246.23 76.06 248.94 C76.07 249.88 76.08 250.83 76.09 251.8 C76.09 252.7 76.09 253.6 76.1 254.53 C76.1 255.36 76.11 256.19 76.11 257.05 C76 259 76 259 75 260 C71.7 260 68.4 260 65 260 C65 277.49 65 294.98 65 313 C75.23 313 85.46 313 96 313 C96 309.7 96 306.4 96 303 C99.96 303 103.92 303 108 303 C108 306.63 108 310.26 108 314 C104.37 314 100.74 314 97 314 C97 317.3 97 320.6 97 324 C86.11 324 75.22 324 64 324 C64 320.7 64 317.4 64 314 C60.7 314 57.4 314 54 314 C54 295.85 54 277.7 54 259 C57.3 259 60.6 259 64 259 C63.99 257.57 63.98 256.14 63.96 254.66 C63.96 252.79 63.95 250.93 63.94 249.06 C63.93 248.12 63.92 247.17 63.91 246.2 C63.91 245.3 63.91 244.4 63.9 243.47 C63.89 242.22 63.89 242.22 63.89 240.95 C64 239 64 239 65 238 C68.3 238 71.6 238 75 238 C75 230.74 75 223.48 75 216 C71.37 216 67.74 216 64 216 C64 212.7 64 209.4 64 206 C60.37 206 56.74 206 53 206 C53 202.7 53 199.4 53 196 C51.37 196.02 49.74 196.04 48.06 196.06 C46.38 196.08 44.69 196.07 43 196 C42 195 42 195 41.9 192.71 C41.91 191.8 41.93 190.88 41.94 189.94 C41.95 189.02 41.96 188.1 41.96 187.15 C41.98 186.44 41.99 185.73 42 185 C41.36 185.01 40.72 185.02 40.07 185.04 C39.24 185.04 38.41 185.05 37.56 185.06 C36.74 185.07 35.92 185.09 35.07 185.1 C33 185 33 185 32 184 C31.86 180.66 31.96 177.34 32 174 C28.37 174 24.74 174 21 174 C21 166.74 21 159.48 21 152 C17.7 152 14.4 152 11 152 C10 151 10 151 9.89 149.05 C9.89 148.22 9.9 147.39 9.9 146.53 C9.91 145.63 9.91 144.73 9.91 143.8 C9.92 142.86 9.93 141.91 9.94 140.94 C9.94 139.99 9.95 139.04 9.95 138.06 C9.96 135.71 9.98 133.35 10 131 C6.7 131 3.4 131 0 131 C0 123.41 0 115.82 0 108 C-3.3 108 -6.6 108 -10 108 C-10 97.44 -10 86.88 -10 76 C-6.7 76 -3.4 76 0 76 C0 50.92 0 25.84 0 0 Z " fill="#65635D" transform="translate(88,191)"/>
<path d="M0 0 C7.59 0 15.18 0 23 0 C23 21.78 23 43.56 23 66 C19.04 66 15.08 66 11 66 C11 69.63 11 73.26 11 77 C7.7 77 4.4 77 1 77 C1 80.3 1 83.6 1 87 C-6.26 87 -13.52 87 -21 87 C-21 83.7 -21 80.4 -21 77 C-24.3 77 -27.6 77 -31 77 C-31 73.37 -31 69.74 -31 66 C-34.63 66 -38.26 66 -42 66 C-42 51.81 -42 37.62 -42 23 C-49.26 23 -56.52 23 -64 23 C-64 19.37 -64 15.74 -64 12 C-52.78 12 -41.56 12 -30 12 C-30 15.3 -30 18.6 -30 22 C-29.34 22 -28.68 22 -28 22 C-28.33 32.89 -28.66 43.78 -29 55 C-27.68 55 -26.36 55 -25 55 C-25 51.04 -25 47.08 -25 43 C-20.29 41.12 -17.08 40.75 -12.19 40.88 C-11.15 40.89 -11.15 40.89 -10.09 40.9 C-8.39 40.93 -6.7 40.96 -5 41 C-5 39.68 -5 38.36 -5 37 C-0.38 37 4.24 37 9 37 C8.98 35.14 8.96 33.29 8.94 31.38 C8.93 21.24 9.49 11.12 10 1 C6.7 1 3.4 1 0 1 C0 0.67 0 0.34 0 0 Z " fill="#97B1C5" transform="translate(454,407)"/>
<path d="M0 0 C0.33 0 0.66 0 1 0 C1 6.93 1 13.86 1 21 C4.3 21 7.6 21 11 21 C11 24.63 11 28.26 11 32 C14.3 32 17.6 32 21 32 C21.1 44.06 21.07 55.98 20 68 C15.38 68 10.76 68 6 68 C6 69.32 6 70.64 6 72 C4.98 72.06 3.95 72.12 2.89 72.18 C1.53 72.27 0.17 72.35 -1.19 72.44 C-1.86 72.48 -2.53 72.52 -3.23 72.56 C-6.94 72.79 -10.33 73.27 -14 74 C-14 77.96 -14 81.92 -14 86 C-15.32 86 -16.64 86 -18 86 C-18.02 81.78 -18.04 77.56 -18.05 73.35 C-18.06 71.91 -18.07 70.48 -18.08 69.04 C-18.09 66.98 -18.09 64.92 -18.1 62.86 C-18.1 61.61 -18.11 60.37 -18.11 59.09 C-18 56 -18 56 -17 53 C-17.66 53 -18.32 53 -19 53 C-19 49.7 -19 46.4 -19 43 C-30.22 43 -41.44 43 -53 43 C-53 39.04 -53 35.08 -53 31 C-59.93 31 -66.86 31 -74 31 C-74 27.37 -74 23.74 -74 20 C-77.3 20 -80.6 20 -84 20 C-84.1 13.07 -84.1 13.07 -84 11 C-83 10 -83 10 -80.13 9.89 C-78.88 9.89 -77.63 9.9 -76.34 9.9 C-75.34 9.9 -75.34 9.9 -74.33 9.91 C-72.2 9.91 -70.07 9.92 -67.94 9.94 C-66.5 9.94 -65.06 9.95 -63.62 9.95 C-60.08 9.96 -56.54 9.98 -53 10 C-53 13.3 -53 16.6 -53 20 C-38.81 20 -24.62 20 -10 20 C-10 16.7 -10 13.4 -10 10 C-6.7 10 -3.4 10 0 10 C0 6.7 0 3.4 0 0 Z " fill="#AFC5D4" transform="translate(443,376)"/>
<path d="M0 0 C14.52 0 29.04 0 44 0 C44 3.3 44 6.6 44 10 C45.63 9.98 47.26 9.96 48.94 9.94 C50.62 9.92 52.31 9.93 54 10 C55 11 55 11 55.1 13.29 C55.07 15.86 55.03 18.43 55 21 C58.96 21 62.92 21 67 21 C67 24.3 67 27.6 67 31 C70.3 31 73.6 31 77 31 C77 45.52 77 60.04 77 75 C73.7 75 70.4 75 67 75 C67 85.89 67 96.78 67 108 C63.04 108 59.08 108 55 108 C55.02 109.63 55.04 111.26 55.06 112.94 C55.08 114.62 55.07 116.31 55 118 C54 119 54 119 51.71 119.1 C49.14 119.07 46.57 119.03 44 119 C44 122.3 44 125.6 44 129 C40.7 129 37.4 129 34 129 C34 132.3 34 135.6 34 139 C1.66 139 -30.68 139 -64 139 C-64 135.37 -64 131.74 -64 128 C-31.99 128 0.02 128 33 128 C33 124.7 33 121.4 33 118 C36.3 118 39.6 118 43 118 C43 114.7 43 111.4 43 108 C46.63 108 50.26 108 54 108 C54 97.11 54 86.22 54 75 C57.96 75 61.92 75 66 75 C66 60.81 66 46.62 66 32 C62.04 32 58.08 32 54 32 C54 28.37 54 24.74 54 21 C50.37 21 46.74 21 43 21 C43 17.7 43 14.4 43 11 C29.14 11 15.28 11 1 11 C1 14.3 1 17.6 1 21 C-2.63 21 -6.26 21 -10 21 C-10 17.37 -10 13.74 -10 10 C-6.7 10 -3.4 10 0 10 C0 6.7 0 3.4 0 0 Z " fill="#5E5C55" transform="translate(346,95)"/>
<path d="M0 0 C0.33 0 0.66 0 1 0 C1 10.56 1 21.12 1 32 C-3.95 32.5 -3.95 32.5 -9 33 C-9.33 50.49 -9.66 67.98 -10 86 C-13.63 86 -17.26 86 -21 86 C-21 89.3 -21 92.6 -21 96 C-24.96 96 -28.92 96 -33 96 C-33 110.52 -33 125.04 -33 140 C-35.97 140 -38.94 140 -42 140 C-42 136.7 -42 133.4 -42 130 C-45.96 130 -49.92 130 -54 130 C-54 136.6 -54 143.2 -54 150 C-56.97 150.33 -59.94 150.66 -63 151 C-63.33 154.3 -63.66 157.6 -64 161 C-67.3 161 -70.6 161 -74 161 C-74 182.45 -74 203.9 -74 226 C-74.33 226 -74.66 226 -75 226 C-75 204.88 -75 183.76 -75 162 C-77.97 162 -80.94 162 -84 162 C-84 155.07 -84 148.14 -84 141 C-80.7 140.67 -77.4 140.34 -74 140 C-73.67 136.7 -73.34 133.4 -73 130 C-69.7 129.67 -66.4 129.34 -63 129 C-63 122.07 -63 115.14 -63 108 C-59.7 108 -56.4 108 -53 108 C-53 104.37 -53 100.74 -53 97 C-49.37 97 -45.74 97 -42 97 C-42.01 96.04 -42.01 95.07 -42.02 94.08 C-42.03 90.51 -42.05 86.95 -42.05 83.38 C-42.06 81.84 -42.07 80.29 -42.08 78.75 C-42.09 76.53 -42.09 74.31 -42.1 72.1 C-42.1 71.4 -42.11 70.71 -42.11 69.99 C-42.11 68.33 -42.06 66.66 -42 65 C-41 64 -41 64 -38.13 63.89 C-36.88 63.89 -35.63 63.9 -34.34 63.9 C-33.34 63.9 -33.34 63.9 -32.33 63.91 C-30.2 63.91 -28.07 63.92 -25.94 63.94 C-24.5 63.94 -23.06 63.95 -21.62 63.95 C-18.08 63.96 -14.54 63.98 -11 64 C-11 60.7 -11 57.4 -11 54 C-12.46 54.02 -13.93 54.04 -15.44 54.06 C-16.96 54.08 -18.48 54.07 -20 54 C-21 53 -21 53 -21.11 50.96 C-21.11 50.08 -21.1 49.21 -21.1 48.31 C-21.09 47.36 -21.09 46.42 -21.09 45.45 C-21.08 43.96 -21.08 43.96 -21.06 42.44 C-21.06 41.44 -21.05 40.44 -21.05 39.42 C-21.04 36.94 -21.02 34.47 -21 32 C-19.87 31.88 -18.73 31.75 -17.56 31.62 C-16.39 31.42 -15.21 31.21 -14 31 C-13.67 30.34 -13.34 29.68 -13 29 C-8.71 29 -4.42 29 0 29 C0 19.43 0 9.86 0 0 Z " fill="#DDE3E9" transform="translate(497,127)"/>
<path d="M0 0 C3.96 0 7.92 0 12 0 C12 3.3 12 6.6 12 10 C16.29 10 20.58 10 25 10 C25 21.22 25 32.44 25 44 C20.71 44 16.42 44 12 44 C12 54.23 12 64.46 12 75 C19.26 75 26.52 75 34 75 C34 78.96 34 82.92 34 87 C30.7 87 27.4 87 24 87 C24 93.93 24 100.86 24 108 C20.04 108 16.08 108 12 108 C12 111.3 12 114.6 12 118 C8.37 118 4.74 118 1 118 C1 114.7 1 111.4 1 108 C4.3 108 7.6 108 11 108 C11 97.11 11 86.22 11 75 C7.7 75 4.4 75 1 75 C1 64.44 1 53.88 1 43 C4.3 43 7.6 43 11 43 C11 32.44 11 21.88 11 11 C7.7 11 4.4 11 1 11 C1 14.3 1 17.6 1 21 C-5.93 21 -12.86 21 -20 21 C-20 24.96 -20 28.92 -20 33 C-23.3 33 -26.6 33 -30 33 C-29.98 34.63 -29.96 36.26 -29.94 37.94 C-29.92 39.62 -29.93 41.31 -30 43 C-31 44 -31 44 -33.72 44.1 C-34.82 44.09 -35.93 44.07 -37.06 44.06 C-38.72 44.05 -38.72 44.05 -40.41 44.04 C-41.26 44.02 -42.12 44.01 -43 44 C-43 40.37 -43 36.74 -43 33 C-56.53 33 -70.06 33 -84 33 C-84 28.71 -84 24.42 -84 20 C-78.04 19.98 -72.07 19.96 -66.11 19.95 C-64.08 19.94 -62.05 19.93 -60.02 19.92 C-57.11 19.91 -54.2 19.91 -51.29 19.9 C-50.37 19.9 -49.46 19.89 -48.52 19.89 C-46.34 19.89 -44.17 19.94 -42 20 C-41 21 -41 21 -40.9 23.5 C-40.91 24.51 -40.93 25.52 -40.94 26.56 C-40.95 27.57 -40.96 28.59 -40.96 29.63 C-40.98 30.41 -40.99 31.19 -41 32 C-38.03 32 -35.06 32 -32 32 C-32 28.37 -32 24.74 -32 21 C-28.57 19.29 -24.78 19.95 -21 20 C-21 16.7 -21 13.4 -21 10 C-14.07 10 -7.14 10 0 10 C0 6.7 0 3.4 0 0 Z " fill="#7F786D" transform="translate(227,170)"/>
<path d="M0 0 C3.63 0 7.26 0 11 0 C11 3.63 11 7.26 11 11 C18.26 11 25.52 11 33 11 C33 14.63 33 18.26 33 22 C36.3 22 39.6 22 43 22 C43 22.33 43 22.66 43 23 C28.48 23 13.96 23 -1 23 C-1 26.3 -1 29.6 -1 33 C-4.3 33 -7.6 33 -11 33 C-11 36.63 -11 40.26 -11 44 C-14.63 44 -18.26 44 -22 44 C-22 47.3 -22 50.6 -22 54 C-28.6 54 -35.2 54 -42 54 C-42.33 47.4 -42.66 40.8 -43 34 C-46.63 33.67 -50.26 33.34 -54 33 C-54 22.44 -54 11.88 -54 1 C-53.67 1 -53.34 1 -53 1 C-53 8.26 -53 15.52 -53 23 C-49.7 23 -46.4 23 -43 23 C-43 19.04 -43 15.08 -43 11 C-28.81 11 -14.62 11 0 11 C0 7.37 0 3.74 0 0 Z " fill="#DBE0E5" transform="translate(347,72)"/>
<path d="M0 0 C6.11 -0.02 12.21 -0.04 18.32 -0.05 C20.4 -0.06 22.47 -0.07 24.55 -0.08 C27.53 -0.09 30.52 -0.09 33.5 -0.1 C34.9 -0.11 34.9 -0.11 36.33 -0.11 C37.19 -0.11 38.05 -0.11 38.94 -0.11 C40.08 -0.12 40.08 -0.12 41.25 -0.12 C43 0 43 0 44 1 C44.07 2.69 44.08 4.38 44.06 6.06 C44.05 6.98 44.04 7.9 44.04 8.85 C44.02 9.56 44.01 10.27 44 11 C46.97 11 49.94 11 53 11 C53 7.37 53 3.74 53 0 C56.63 0 60.26 0 64 0 C64 3.96 64 7.92 64 12 C60.7 12 57.4 12 54 12 C54 15.63 54 19.26 54 23 C50.7 23 47.4 23 44 23 C44 26.3 44 29.6 44 33 C40.04 33 36.08 33 32 33 C32.02 34.63 32.04 36.26 32.06 37.94 C32.08 39.62 32.07 41.31 32 43 C31 44 31 44 29.05 44.11 C28.22 44.11 27.39 44.1 26.53 44.1 C25.63 44.09 24.73 44.09 23.8 44.09 C22.38 44.08 22.38 44.08 20.94 44.06 C19.99 44.06 19.04 44.05 18.06 44.05 C15.71 44.04 13.35 44.02 11 44 C11 47.3 11 50.6 11 54 C3.74 54 -3.52 54 -11 54 C-11 50.7 -11 47.4 -11 44 C-14.63 44 -18.26 44 -22 44 C-22 47.3 -22 50.6 -22 54 C-25.63 54 -29.26 54 -33 54 C-33 50.37 -33 46.74 -33 43 C-29.7 43 -26.4 43 -23 43 C-23 36.4 -23 29.8 -23 23 C-19.04 23 -15.08 23 -11 23 C-10.22 29.84 -10 36.01 -10 43 C-3.4 43 3.2 43 10 43 C10 39.7 10 36.4 10 33 C16.93 33 23.86 33 31 33 C31 29.37 31 25.74 31 22 C34.96 22 38.92 22 43 22 C43 18.7 43 15.4 43 12 C29.14 12.33 15.28 12.66 1 13 C0.67 16.3 0.34 19.6 0 23 C-3.3 23 -6.6 23 -10 23 C-10 19.37 -10 15.74 -10 12 C-6.7 12 -3.4 12 0 12 C0 8.04 0 4.08 0 0 Z " fill="#657885" transform="translate(261,407)"/>
<path d="M0 0 C6.93 0 13.86 0 21 0 C21 3.63 21 7.26 21 11 C14.4 11 7.8 11 1 11 C1.04 17.54 1.04 17.54 1.09 24.07 C1.09 24.88 1.1 25.69 1.1 26.53 C1.11 27.78 1.11 27.78 1.11 29.05 C1 31 1 31 0 32 C-3.63 32 -7.26 32 -11 32 C-11 42.56 -11 53.12 -11 64 C-7.37 64 -3.74 64 0 64 C1 65 1 65 1.11 66.95 C1.11 67.78 1.1 68.61 1.1 69.47 C1.1 70.28 1.09 71.09 1.09 71.93 C1.08 72.96 1.07 74 1.06 75.06 C1.04 78.34 1.02 81.62 1 85 C7.6 85 14.2 85 21 85 C21 81.7 21 78.4 21 75 C24.63 75 28.26 75 32 75 C32 78.63 32 82.26 32 86 C28.7 86 25.4 86 22 86 C22 89.3 22 92.6 22 96 C18.37 96 14.74 96 11 96 C11 99.96 11 103.92 11 108 C7.37 108 3.74 108 0 108 C0 100.74 0 93.48 0 86 C-3.96 86 -7.92 86 -12 86 C-12 79.07 -12 72.14 -12 65 C-15.63 65 -19.26 65 -23 65 C-23.02 60.32 -23.04 55.64 -23.05 50.96 C-23.06 49.36 -23.07 47.77 -23.08 46.17 C-23.09 43.89 -23.09 41.6 -23.1 39.32 C-23.1 38.6 -23.11 37.88 -23.11 37.14 C-23.11 35.43 -23.06 33.71 -23 32 C-22.67 31.67 -22.34 31.34 -22 31 C-18.7 31 -15.4 31 -12 31 C-12 24.07 -12 17.14 -12 10 C-8.04 10 -4.08 10 0 10 C0 6.7 0 3.4 0 0 Z " fill="#686761" transform="translate(304,41)"/>
<path d="M0 0 C0.33 0 0.66 0 1 0 C1 17.49 1 34.98 1 53 C4.3 53 7.6 53 11 53 C11 53.33 11 53.66 11 54 C7.7 54 4.4 54 1 54 C1 57.63 1 61.26 1 65 C-2.3 65 -5.6 65 -9 65 C-8.99 66.27 -8.99 67.53 -8.98 68.84 C-8.97 73.52 -8.95 78.21 -8.95 82.89 C-8.94 84.92 -8.93 86.95 -8.92 88.98 C-8.91 91.89 -8.91 94.8 -8.9 97.71 C-8.9 98.63 -8.89 99.54 -8.89 100.48 C-8.89 102.66 -8.94 104.83 -9 107 C-10 108 -10 108 -12.5 108.1 C-13.51 108.09 -14.52 108.07 -15.56 108.06 C-16.57 108.05 -17.59 108.04 -18.63 108.04 C-19.41 108.02 -20.19 108.01 -21 108 C-21 111.3 -21 114.6 -21 118 C-31.56 118 -42.12 118 -53 118 C-53 117.67 -53 117.34 -53 117 C-50.03 117 -47.06 117 -44 117 C-44 110.4 -44 103.8 -44 97 C-40.04 97 -36.08 97 -32 97 C-32 100.3 -32 103.6 -32 107 C-29.03 107 -26.06 107 -23 107 C-23 92.48 -23 77.96 -23 63 C-19.04 63 -15.08 63 -11 63 C-11 59.7 -11 56.4 -11 53 C-7.37 53 -3.74 53 0 53 C0 35.51 0 18.02 0 0 Z " fill="#8D8E8C" transform="translate(487,160)"/>
<path d="M0 0 C3.3 0 6.6 0 10 0 C10 3.3 10 6.6 10 10 C13.3 10 16.6 10 20 10 C20 13.63 20 17.26 20 21 C23.63 21 27.26 21 31 21 C31 24.3 31 27.6 31 31 C34.3 31 37.6 31 41 31 C41 34.96 41 38.92 41 43 C44.96 43 48.92 43 53 43 C53 46.63 53 50.26 53 54 C45.74 54 38.48 54 31 54 C31 50.37 31 46.74 31 43 C27.7 43 24.4 43 21 43 C21 39.04 21 35.08 21 31 C14.07 31 7.14 31 0 31 C0 20.77 0 10.54 0 0 Z " fill="#B5C9D8" transform="translate(89,268)"/>
<path d="M0 0 C0.33 0 0.66 0 1 0 C1 3.63 1 7.26 1 11 C4.3 11 7.6 11 11 11 C10.98 9.37 10.96 7.74 10.94 6.06 C10.92 4.38 10.93 2.69 11 1 C12 0 12 0 15.97 -0.11 C17.74 -0.11 19.51 -0.11 21.29 -0.1 C22.22 -0.1 23.15 -0.09 24.11 -0.09 C27.09 -0.09 30.08 -0.08 33.06 -0.06 C35.08 -0.06 37.1 -0.05 39.12 -0.05 C44.08 -0.04 49.04 -0.02 54 0 C54 3.3 54 6.6 54 10 C50.04 10 46.08 10 42 10 C42 13.63 42 17.26 42 21 C35.07 21 28.14 21 21 21 C21 24.3 21 27.6 21 31 C14.4 31 7.8 31 1 31 C0.23 24.27 -0.1 17.77 0 11 C-3.63 11 -7.26 11 -11 11 C-11 10.67 -11 10.34 -11 10 C-7.37 10 -3.74 10 0 10 C0 6.7 0 3.4 0 0 Z " fill="#9AB5C8" transform="translate(250,419)"/>
<path d="M0 0 C32.01 0 64.02 0 97 0 C97 3.3 97 6.6 97 10 C64.99 10 32.98 10 0 10 C0 6.7 0 3.4 0 0 Z " fill="#050403" transform="translate(282,224)"/>
<path d="M0 0 C10.89 0 21.78 0 33 0 C33 17.82 33 35.64 33 54 C29.37 54 25.74 54 22 54 C22 39.81 22 25.62 22 11 C14.74 11 7.48 11 0 11 C0 7.37 0 3.74 0 0 Z " fill="#3F413E" transform="translate(390,419)"/>
<path d="M0 0 C3.96 0 7.92 0 12 0 C12 21.78 12 43.56 12 66 C8.04 66 4.08 66 0 66 C0 44.22 0 22.44 0 0 Z " fill="#090909" transform="translate(465,407)"/>
<path d="M0 0 C3.3 0 6.6 0 10 0 C10 25.08 10 50.16 10 76 C6.7 76 3.4 76 0 76 C0 50.92 0 25.84 0 0 Z " fill="#090708" transform="translate(89,191)"/>
<path d="M0 0 C0.33 0 0.66 0 1 0 C1 3.3 1 6.6 1 10 C4.3 10 7.6 10 11 10 C11 13.3 11 16.6 11 20 C11.83 19.99 12.66 19.98 13.52 19.96 C14.61 19.96 15.69 19.95 16.81 19.94 C17.89 19.93 18.97 19.91 20.08 19.9 C23 20 23 20 26 21 C28 21.04 30 21.04 32 21 C33.8 26.29 35.14 30.64 35.06 36.25 C35.05 37.14 35.04 38.03 35.04 38.95 C35.02 39.63 35.01 40.3 35 41 C36.98 40.5 36.98 40.5 39 40 C39.33 37.03 39.66 34.06 40 31 C40.33 31 40.66 31 41 31 C41.03 32.65 41.05 34.29 41.06 35.94 C41.07 36.85 41.09 37.77 41.1 38.71 C41 41 41 41 40 42 C37.67 42.04 35.33 42.04 33 42 C33.01 42.78 33.02 43.56 33.04 44.37 C33.04 45.38 33.05 46.39 33.06 47.44 C33.07 48.45 33.09 49.46 33.1 50.5 C33 53 33 53 32 54 C28.7 54 25.4 54 22 54 C22 60.6 22 67.2 22 74 C21.67 74 21.34 74 21 74 C21 67.4 21 60.8 21 54 C17.7 54 14.4 54 11 54 C11 53.67 11 53.34 11 53 C14.3 53 17.6 53 21 53 C21 45.74 21 38.48 21 31 C17.37 31 13.74 31 10 31 C10 27.7 10 24.4 10 21 C6.37 21 2.74 21 -1 21 C-1 17.7 -1 14.4 -1 11 C-4.3 11 -7.6 11 -11 11 C-11 10.67 -11 10.34 -11 10 C-7.37 10 -3.74 10 0 10 C0 6.7 0 3.4 0 0 Z " fill="#96A5AD" transform="translate(142,376)"/>
<path d="M0 0 C0.33 0 0.66 0 1 0 C1 3.3 1 6.6 1 10 C3.29 9.75 3.29 9.75 5.62 9.5 C12.42 8.87 19.18 8.91 26 9 C25.67 9.66 25.34 10.32 25 11 C24.96 13.33 24.96 15.67 25 18 C27.97 18 30.94 18 34 18 C33.67 29.55 33.34 41.1 33 53 C35.97 53 38.94 53 42 53 C42 49.37 42 45.74 42 42 C46.29 42 50.58 42 55 42 C55 56.19 55 70.38 55 85 C54.67 85 54.34 85 54 85 C54 78.4 54 71.8 54 65 C51.31 65.03 51.31 65.03 48.56 65.06 C46.71 65.08 44.85 65.07 43 65 C42 64 42 64 41.9 61.71 C41.93 59.14 41.97 56.57 42 54 C38.7 54 35.4 54 32 54 C32 46.41 32 38.82 32 31 C28.37 31 24.74 31 21 31 C21 27.7 21 24.4 21 21 C17.7 21 14.4 21 11 21 C11 17.7 11 14.4 11 11 C7.37 11 3.74 11 0 11 C0 7.37 0 3.74 0 0 Z " fill="#F3E0DB" transform="translate(142,311)"/>
<path d="M0 0 C3.96 0 7.92 0 12 0 C12.78 6.84 13 13.01 13 20 C19.6 20 26.2 20 33 20 C33 16.7 33 13.4 33 10 C33.33 10 33.66 10 34 10 C34 13.3 34 16.6 34 20 C40.6 20 47.2 20 54 20 C54 20.33 54 20.66 54 21 C47.4 21 40.8 21 34 21 C34 24.3 34 27.6 34 31 C26.74 31 19.48 31 12 31 C12 27.7 12 24.4 12 21 C8.37 21 4.74 21 1 21 C1 24.3 1 27.6 1 31 C-2.63 31 -6.26 31 -10 31 C-10 27.37 -10 23.74 -10 20 C-6.7 20 -3.4 20 0 20 C0 13.4 0 6.8 0 0 Z " fill="#646765" transform="translate(238,430)"/>
<path d="M0 0 C7.26 0 14.52 0 22 0 C22 3.63 22 7.26 22 11 C18.7 11.33 15.4 11.66 12 12 C11.67 18.93 11.34 25.86 11 33 C8.03 33 5.06 33 2 33 C2 29.7 2 26.4 2 23 C-2.29 23 -6.58 23 -11 23 C-11.1 13.72 -11.1 13.72 -11 11 C-10 10 -10 10 -7.71 9.9 C-5.14 9.93 -2.57 9.97 0 10 C0 6.7 0 3.4 0 0 Z " fill="#4B97A3" transform="translate(195,234)"/>
<path d="M0 0 C3.3 0 6.6 0 10 0 C10 10.56 10 21.12 10 32 C6.7 32 3.4 32 0 32 C0 42.56 0 53.12 0 64 C-0.33 64 -0.66 64 -1 64 C-1 57.07 -1 50.14 -1 43 C-4.3 43 -7.6 43 -11 43 C-11 36.07 -11 29.14 -11 22 C-7.37 22 -3.74 22 0 22 C0 18.37 0 14.74 0 11 C-6.6 11 -13.2 11 -20 11 C-20 14.63 -20 18.26 -20 22 C-20.33 22 -20.66 22 -21 22 C-21 18.04 -21 14.08 -21 10 C-14.07 10 -7.14 10 0 10 C0 6.7 0 3.4 0 0 Z " fill="#CEAFA6" transform="translate(228,181)"/>
<path d="M0 0 C14.19 0 28.38 0 43 0 C43 3.63 43 7.26 43 11 C29.14 11 15.28 11 1 11 C0.67 14.96 0.34 18.92 0 23 C-3.3 23 -6.6 23 -10 23 C-10 19.37 -10 15.74 -10 12 C-6.7 12 -3.4 12 0 12 C0 8.04 0 4.08 0 0 Z " fill="#53616C" transform="translate(261,407)"/>
<path d="M0 0 C2.97 0 5.94 0 9 0 C9 20.79 9 41.58 9 63 C6.03 63 3.06 63 0 63 C0 42.21 0 21.42 0 0 Z " fill="#020100" transform="translate(424,289)"/>
<path d="M0 0 C3.96 0 7.92 0 12 0 C12 14.19 12 28.38 12 43 C8.04 43 4.08 43 0 43 C0 28.81 0 14.62 0 0 Z " fill="#0A0A0A" transform="translate(465,224)"/>
<path d="M0 0 C13.53 0 27.06 0 41 0 C41 3.96 41 7.92 41 12 C27.47 12 13.94 12 0 12 C0 8.04 0 4.08 0 0 Z " fill="#080705" transform="translate(143,191)"/>
<path d="M0 0 C3.63 0 7.26 0 11 0 C11 3.3 11 6.6 11 10 C17.6 10 24.2 10 31 10 C31 6.7 31 3.4 31 0 C34.63 0 38.26 0 42 0 C42 3.63 42 7.26 42 11 C38.7 11 35.4 11 32 11 C32 14.3 32 17.6 32 21 C24.74 21 17.48 21 10 21 C10 17.7 10 14.4 10 11 C6.7 11 3.4 11 0 11 C0 7.37 0 3.74 0 0 Z " fill="#080A0C" transform="translate(423,473)"/>
<path d="M0 0 C2.97 0 5.94 0 9 0 C9 17.49 9 34.98 9 53 C6.03 53 3.06 53 0 53 C0 35.51 0 18.02 0 0 Z " fill="#030100" transform="translate(143,451)"/>
<path d="M0 0 C2.97 0 5.94 0 9 0 C9 17.49 9 34.98 9 53 C6.03 53 3.06 53 0 53 C0 35.51 0 18.02 0 0 Z " fill="#030203" transform="translate(488,160)"/>
<path d="M0 0 C3.3 0 6.6 0 10 0 C10 3.96 10 7.92 10 12 C13.63 12 17.26 12 21 12 C21 15.3 21 18.6 21 22 C28.26 22 35.52 22 43 22 C43 22.33 43 22.66 43 23 C35.74 23 28.48 23 21 23 C21 29.93 21 36.86 21 44 C17.7 44 14.4 44 11 44 C11 51.26 11 58.52 11 66 C7.7 66 4.4 66 1 66 C1 69.63 1 73.26 1 77 C0.67 77 0.34 77 0 77 C0 69.41 0 61.82 0 54 C3.3 54 6.6 54 10 54 C10 49.71 10 45.42 10 41 C12.64 41 15.28 41 18 41 C18.99 32.09 18.99 32.09 20 23 C16.7 23 13.4 23 10 23 C10 19.7 10 16.4 10 13 C6.7 12.67 3.4 12.34 0 12 C0 8.04 0 4.08 0 0 Z " fill="#C7BAB6" transform="translate(99,191)"/>
<path d="M0 0 C7.59 0 15.18 0 23 0 C23 3.96 23 7.92 23 12 C20.31 12.19 20.31 12.19 17.56 12.38 C14.59 12.53 14.59 12.53 12 13 C11.67 13.66 11.34 14.32 11 15 C7.36 16.08 5.82 15.96 2 15 C2 18.3 2 21.6 2 25 C2.99 25.33 3.98 25.66 5 26 C5 27.98 5 29.96 5 32 C4.01 32 3.02 32 2 32 C1.67 29.03 1.34 26.06 1 23 C-2.63 23 -6.26 23 -10 23 C-10 19.37 -10 15.74 -10 12 C-6.7 12 -3.4 12 0 12 C0 8.04 0 4.08 0 0 Z " fill="#4B696F" transform="translate(130,245)"/>
<path d="M0 0 C14.19 0 28.38 0 43 0 C43 3.3 43 6.6 43 10 C28.81 10 14.62 10 0 10 C0 6.7 0 3.4 0 0 Z " fill="#060505" transform="translate(326,397)"/>
<path d="M0 0 C14.19 0 28.38 0 43 0 C43 3.3 43 6.6 43 10 C28.81 10 14.62 10 0 10 C0 6.7 0 3.4 0 0 Z " fill="#070606" transform="translate(347,19)"/>
<path d="M0 0 C13.86 0 27.72 0 42 0 C42 3.3 42 6.6 42 10 C28.14 10 14.28 10 0 10 C0 6.7 0 3.4 0 0 Z " fill="#040405" transform="translate(347,95)"/>
<path d="M0 0 C0 3.3 0 6.6 0 10 C-3.63 10 -7.26 10 -11 10 C-11 13.63 -11 17.26 -11 21 C-13.97 21 -16.94 21 -20 21 C-20.33 17.7 -20.66 14.4 -21 11 C-35.19 10.67 -49.38 10.34 -64 10 C-64 13.96 -64 17.92 -64 22 C-67.3 22 -70.6 22 -74 22 C-74 21.67 -74 21.34 -74 21 C-71.03 21 -68.06 21 -65 21 C-65 17.7 -65 14.4 -65 11 C-65.99 11.33 -66.98 11.66 -68 12 C-67.34 10.68 -66.68 9.36 -66 8 C-65.34 8 -64.68 8 -64 8 C-64.33 6.35 -64.66 4.7 -65 3 C-63.02 3 -61.04 3 -59 3 C-59.33 3.66 -59.66 4.32 -60 5 C-43.17 5 -26.34 5 -9 5 C-9.33 6.32 -9.66 7.64 -10 9 C-7.03 9 -4.06 9 -1 9 C-1 8.01 -1 7.02 -1 6 C-1.33 6.33 -1.66 6.66 -2 7 C-2.99 7.33 -3.98 7.66 -5 8 C-3.92 0 -3.92 0 0 0 Z " fill="#F1F5F7" transform="translate(325,397)"/>
<path d="M0 0 C7.26 0 14.52 0 22 0 C22 3.96 22 7.92 22 12 C18.37 12 14.74 12 11 12 C11 15.63 11 19.26 11 23 C7.37 23 3.74 23 0 23 C0 15.41 0 7.82 0 0 Z " fill="#090808" transform="translate(239,245)"/>
<path d="M0 0 C2.97 0 5.94 0 9 0 C9 13.86 9 27.72 9 42 C6.03 42 3.06 42 0 42 C0 28.14 0 14.28 0 0 Z " fill="#020202" transform="translate(413,430)"/>
<path d="M0 0 C2.97 0 5.94 0 9 0 C9 13.86 9 27.72 9 42 C6.03 42 3.06 42 0 42 C0 28.14 0 14.28 0 0 Z " fill="#020201" transform="translate(413,127)"/>
<path d="M0 0 C10.89 0 21.78 0 33 0 C33 3.63 33 7.26 33 11 C22.11 11 11.22 11 0 11 C0 7.37 0 3.74 0 0 Z " fill="#221F1B" transform="translate(444,72)"/>
<path d="M0 0 C3.63 0 7.26 0 11 0 C11 10.56 11 21.12 11 32 C7.37 32 3.74 32 0 32 C0 21.44 0 10.88 0 0 Z " fill="#050302" transform="translate(239,181)"/>
<path d="M0 0 C6.6 0 13.2 0 20 0 C20 3.3 20 6.6 20 10 C16.7 10 13.4 10 10 10 C10 13.96 10 17.92 10 22 C6.7 22 3.4 22 0 22 C0 14.74 0 7.48 0 0 Z " fill="#070605" transform="translate(305,127)"/>
<path d="M0 0 C3.3 0 6.6 0 10 0 C10 10.56 10 21.12 10 32 C6.7 32 3.4 32 0 32 C0 21.44 0 10.88 0 0 Z " fill="#090707" transform="translate(282,73)"/>
<path d="M0 0 C10.23 0 20.46 0 31 0 C31 3.3 31 6.6 31 10 C20.77 10 10.54 10 0 10 C0 6.7 0 3.4 0 0 Z " fill="#070604" transform="translate(153,505)"/>
<path d="M0 0 C3.3 0 6.6 0 10 0 C10 10.23 10 20.46 10 31 C6.7 31 3.4 31 0 31 C0 20.77 0 10.54 0 0 Z " fill="#010001" transform="translate(78,268)"/>
<path d="M0 0 C3.3 0 6.6 0 10 0 C10 10.23 10 20.46 10 31 C6.7 31 3.4 31 0 31 C0 20.77 0 10.54 0 0 Z " fill="#020201" transform="translate(401,171)"/>
<path d="M0 0 C3.63 0 7.26 0 11 0 C10.67 3.3 10.34 6.6 10 10 C7.03 10 4.06 10 1 10 C1 13.63 1 17.26 1 21 C-3.29 21 -7.58 21 -12 21 C-12 17.7 -12 14.4 -12 11 C-10.12 14.77 -9.78 16.03 -10 20 C-9.01 20 -8.02 20 -7 20 C-7.34 17.03 -7.34 17.03 -8 14 C-8.66 13.67 -9.32 13.34 -10 13 C-10 9.7 -10 6.4 -10 3 C-7.03 3 -4.06 3 -1 3 C-0.67 2.01 -0.34 1.02 0 0 Z " fill="#4B98A5" transform="translate(142,257)"/>
<path d="M0 0 C2.97 0 5.94 0 9 0 C9 10.56 9 21.12 9 32 C6.03 32 3.06 32 0 32 C0 21.44 0 10.88 0 0 Z " fill="#040202" transform="translate(499,127)"/>
<path d="M0 0 C2.97 0 5.94 0 9 0 C9 9.9 9 19.8 9 30 C6.03 30 3.06 30 0 30 C0 20.1 0 10.2 0 0 Z " fill="#040202" transform="translate(229,214)"/>
<path d="M0 0 C6.93 0 13.86 0 21 0 C21 3.96 21 7.92 21 12 C14.07 12 7.14 12 0 12 C0 8.04 0 4.08 0 0 Z " fill="#0C0B0A" transform="translate(207,461)"/>
<path d="M0 0 C6.93 0 13.86 0 21 0 C21 3.96 21 7.92 21 12 C14.07 12 7.14 12 0 12 C0 8.04 0 4.08 0 0 Z " fill="#0B0B0B" transform="translate(369,407)"/>
<path d="M0 0 C7.71 -0.1 7.71 -0.1 10 0 C11 1 11 1 11.1 3.29 C11.05 7.14 11.05 7.14 11 11 C14.3 11 17.6 11 21 11 C21 14.96 21 18.92 21 23 C17.37 23 13.74 23 10 23 C10 19.04 10 15.08 10 11 C6.7 11 3.4 11 0 11 C0 7.37 0 3.74 0 0 Z " fill="#26231F" transform="translate(99,180)"/>
<path d="M0 0 C3.63 0 7.26 0 11 0 C11 3.3 11 6.6 11 10 C14.63 10 18.26 10 22 10 C22 13.63 22 17.26 22 21 C18.04 21 14.08 21 10 21 C10 17.7 10 14.4 10 11 C7.8 11.03 7.8 11.03 5.56 11.06 C4.04 11.08 2.52 11.07 1 11 C0 10 0 10 -0.1 7.71 C-0.07 5.14 -0.03 2.57 0 0 Z " fill="#15171A" transform="translate(120,365)"/>
<path d="M0 0 C0.33 0 0.66 0 1 0 C1 6.93 1 13.86 1 21 C-2.96 21 -6.92 21 -11 21 C-11 24.3 -11 27.6 -11 31 C-14.63 31 -18.26 31 -22 31 C-22 27.7 -22 24.4 -22 21 C-18.7 21 -15.4 21 -12 21 C-12 17.7 -12 14.4 -12 11 C-8.04 11 -4.08 11 0 11 C0 7.37 0 3.74 0 0 Z " fill="#8E8E8E" transform="translate(250,257)"/>
<path d="M0 0 C0.33 0 0.66 0 1 0 C1 3.3 1 6.6 1 10 C4.3 10 7.6 10 11 10 C11 10.33 11 10.66 11 11 C7.7 11 4.4 11 1 11 C1 14.3 1 17.6 1 21 C-2.3 21 -5.6 21 -9 21 C-9 24.3 -9 27.6 -9 31 C-9.33 31 -9.66 31 -10 31 C-10 27.7 -10 24.4 -10 21 C-42.01 21 -74.02 21 -107 21 C-107 20.67 -107 20.34 -107 20 C-74.99 20 -42.98 20 -10 20 C-10 16.7 -10 13.4 -10 10 C-6.7 10 -3.4 10 0 10 C0 6.7 0 3.4 0 0 Z " fill="#AAA18E" transform="translate(389,203)"/>
<path d="M0 0 C14.52 0 29.04 0 44 0 C44 0.33 44 0.66 44 1 C29.81 1 15.62 1 1 1 C1 4.3 1 7.6 1 11 C15.19 11 29.38 11 44 11 C44 14.96 44 18.92 44 23 C43.67 23 43.34 23 43 23 C43 19.37 43 15.74 43 12 C29.47 12 15.94 12 2 12 C2.33 14.97 2.66 17.94 3 21 C3.99 20.67 4.98 20.34 6 20 C7 21 7 21 7.06 23.56 C7.04 24.37 7.02 25.17 7 26 C6.34 26 5.68 26 5 26 C5 27.32 5 28.64 5 30 C3.68 30 2.36 30 1 30 C1 30.66 1 31.32 1 32 C-0.65 32 -2.3 32 -4 32 C-4.33 30.35 -4.66 28.7 -5 27 C-4.01 26.67 -3.02 26.34 -2 26 C-3.65 26 -5.3 26 -7 26 C-7 25.34 -7 24.68 -7 24 C-7.66 24 -8.32 24 -9 24 C-9 26.97 -9 29.94 -9 33 C-9.33 33 -9.66 33 -10 33 C-10 29.7 -10 26.4 -10 23 C-6.7 23 -3.4 23 0 23 C0 15.41 0 7.82 0 0 Z " fill="#A7A191" transform="translate(325,396)"/>
<path d="M0 0 C6.6 0 13.2 0 20 0 C20 3.96 20 7.92 20 12 C13.4 12 6.8 12 0 12 C0 8.04 0 4.08 0 0 Z " fill="#090806" transform="translate(326,29)"/>
<path d="M0 0 C6.93 0 13.86 0 21 0 C21 3.63 21 7.26 21 11 C14.07 11 7.14 11 0 11 C0 7.37 0 3.74 0 0 Z " fill="#010405" transform="translate(131,246)"/>
<path d="M0 0 C0.33 0 0.66 0 1 0 C1 6.93 1 13.86 1 21 C3.97 21 6.94 21 10 21 C10 27.93 10 34.86 10 42 C6.7 42 3.4 42 0 42 C0 28.14 0 14.28 0 0 Z " fill="#C1A59C" transform="translate(99,203)"/>
<path d="M0 0 C3.3 0 6.6 0 10 0 C10 7.26 10 14.52 10 22 C6.7 22 3.4 22 0 22 C0 14.74 0 7.48 0 0 Z " fill="#09090A" transform="translate(164,407)"/>
<path d="M0 0 C3.3 0 6.6 0 10 0 C10 7.26 10 14.52 10 22 C6.7 22 3.4 22 0 22 C0 14.74 0 7.48 0 0 Z " fill="#0B0908" transform="translate(434,353)"/>
<path d="M0 0 C3.3 0 6.6 0 10 0 C10 7.26 10 14.52 10 22 C6.7 22 3.4 22 0 22 C0 14.74 0 7.48 0 0 Z " fill="#080809" transform="translate(110,343)"/>
<path d="M0 0 C3.3 0 6.6 0 10 0 C10 7.26 10 14.52 10 22 C6.7 22 3.4 22 0 22 C0 14.74 0 7.48 0 0 Z " fill="#020002" transform="translate(89,299)"/>
<path d="M0 0 C7.09 -0.1 13.95 0.28 21 1 C21 4.3 21 7.6 21 11 C14.07 11 7.14 11 0 11 C0 7.37 0 3.74 0 0 Z " fill="#000001" transform="translate(444,267)"/>
<path d="M0 0 C7.26 0 14.52 0 22 0 C22 3.3 22 6.6 22 10 C14.74 10 7.48 10 0 10 C0 6.7 0 3.4 0 0 Z " fill="#080707" transform="translate(120,203)"/>
<path d="M0 0 C3.63 0 7.26 0 11 0 C11 6.6 11 13.2 11 20 C7.37 20 3.74 20 0 20 C0 13.4 0 6.8 0 0 Z " fill="#040304" transform="translate(293,106)"/>
<path d="M0 0 C3.63 0 7.26 0 11 0 C11 6.6 11 13.2 11 20 C7.37 20 3.74 20 0 20 C0 13.4 0 6.8 0 0 Z " fill="#040404" transform="translate(293,52)"/>
<path d="M0 0 C3.3 0 6.6 0 10 0 C10.1 7.71 10.1 7.71 10 10 C9.67 10.33 9.34 10.66 9 11 C7.02 11 5.04 11 3 11 C3.33 14.96 3.66 18.92 4 23 C3.01 23.33 2.02 23.66 1 24 C1 25.32 1 26.64 1 28 C-0.65 27.67 -2.3 27.34 -4 27 C-4 26.34 -4 25.68 -4 25 C-4.99 25 -5.98 25 -7 25 C-7 28.3 -7 31.6 -7 35 C-7.33 35 -7.66 35 -8 35 C-8.33 31.04 -8.66 27.08 -9 23 C-6.03 23 -3.06 23 0 23 C0 19.04 0 15.08 0 11 C-6.6 11 -13.2 11 -20 11 C-20 14.63 -20 18.26 -20 22 C-20.33 22 -20.66 22 -21 22 C-21 18.04 -21 14.08 -21 10 C-14.07 10 -7.14 10 0 10 C0 6.7 0 3.4 0 0 Z " fill="#CDAEA4" transform="translate(228,181)"/>
<path d="M0 0 C3.3 0 6.6 0 10 0 C10 6.93 10 13.86 10 21 C6.7 21 3.4 21 0 21 C0 14.07 0 7.14 0 0 Z " fill="#151411" transform="translate(197,473)"/>
<path d="M0 0 C6.93 0 13.86 0 21 0 C21 3.3 21 6.6 21 10 C14.07 10 7.14 10 0 10 C0 6.7 0 3.4 0 0 Z " fill="#000001" transform="translate(261,235)"/>
<path d="M0 0 C6.93 0 13.86 0 21 0 C21 3.3 21 6.6 21 10 C14.07 10 7.14 10 0 10 C0 6.7 0 3.4 0 0 Z " fill="#000002" transform="translate(207,181)"/>
<path d="M0 0 C6.93 0 13.86 0 21 0 C21 3.3 21 6.6 21 10 C14.07 10 7.14 10 0 10 C0 6.7 0 3.4 0 0 Z " fill="#090807" transform="translate(423,62)"/>
<path d="M0 0 C6.6 0 13.2 0 20 0 C20 3.3 20 6.6 20 10 C13.4 10 6.8 10 0 10 C0 6.7 0 3.4 0 0 Z " fill="#070604" transform="translate(434,484)"/>
<path d="M0 0 C6.6 0 13.2 0 20 0 C20 3.3 20 6.6 20 10 C13.4 10 6.8 10 0 10 C0 6.7 0 3.4 0 0 Z " fill="#020202" transform="translate(251,451)"/>
<path d="M0 0 C6.6 0 13.2 0 20 0 C20 3.3 20 6.6 20 10 C13.4 10 6.8 10 0 10 C0 6.7 0 3.4 0 0 Z " fill="#050506" transform="translate(272,440)"/>
<path d="M0 0 C3.3 0 6.6 0 10 0 C10 6.6 10 13.2 10 20 C6.7 20 3.4 20 0 20 C0 13.4 0 6.8 0 0 Z " fill="#080706" transform="translate(153,430)"/>
<path d="M0 0 C3.3 0 6.6 0 10 0 C10 6.6 10 13.2 10 20 C6.7 20 3.4 20 0 20 C0 13.4 0 6.8 0 0 Z " fill="#080708" transform="translate(99,322)"/>
<path d="M0 0 C6.6 0 13.2 0 20 0 C20 3.3 20 6.6 20 10 C13.4 10 6.8 10 0 10 C0 6.7 0 3.4 0 0 Z " fill="#030707" transform="translate(197,235)"/>
<path d="M0 0 C6.6 0 13.2 0 20 0 C20 3.3 20 6.6 20 10 C13.4 10 6.8 10 0 10 C0 6.7 0 3.4 0 0 Z " fill="#080604" transform="translate(305,41)"/>
<path d="M0 0 C0.33 0 0.66 0 1 0 C1 7.26 1 14.52 1 22 C-2.63 22 -6.26 22 -10 22 C-10 25.63 -10 29.26 -10 33 C-13.63 33 -17.26 33 -21 33 C-21 29.7 -21 26.4 -21 23 C-24.63 23 -28.26 23 -32 23 C-32 22.67 -32 22.34 -32 22 C-28.04 22 -24.08 22 -20 22 C-20 25.3 -20 28.6 -20 32 C-17.03 32 -14.06 32 -11 32 C-11.01 31.05 -11.01 31.05 -11.02 30.09 C-11.04 27.25 -11.05 24.4 -11.06 21.56 C-11.07 20.57 -11.08 19.58 -11.09 18.55 C-11.09 17.14 -11.09 17.14 -11.1 15.69 C-11.11 14.38 -11.11 14.38 -11.11 13.04 C-11 11 -11 11 -10 10 C-6.66 9.86 -3.34 9.96 0 10 C0 6.7 0 3.4 0 0 Z " fill="#88D0C8" transform="translate(217,235)"/>
<path d="M0 0 C0.33 0 0.66 0 1 0 C1 3.3 1 6.6 1 10 C7.6 10 14.2 10 21 10 C21 10.33 21 10.66 21 11 C14.4 11 7.8 11 1 11 C1.04 17.54 1.04 17.54 1.09 24.07 C1.09 24.88 1.1 25.69 1.1 26.53 C1.11 27.78 1.11 27.78 1.11 29.05 C1 31 1 31 0 32 C-3.63 32 -7.26 32 -11 32 C-11 42.56 -11 53.12 -11 64 C-7.37 64 -3.74 64 0 64 C0 64.33 0 64.66 0 65 C-7.59 65 -15.18 65 -23 65 C-23.02 60.32 -23.04 55.64 -23.05 50.96 C-23.06 49.36 -23.07 47.77 -23.08 46.17 C-23.09 43.89 -23.09 41.6 -23.1 39.32 C-23.1 38.6 -23.11 37.88 -23.11 37.14 C-23.11 35.43 -23.06 33.71 -23 32 C-22.67 31.67 -22.34 31.34 -22 31 C-18.7 31 -15.4 31 -12 31 C-12 24.07 -12 17.14 -12 10 C-8.04 10 -4.08 10 0 10 C0 6.7 0 3.4 0 0 Z M-11 11 C-11 17.6 -11 24.2 -11 31 C-7.37 31 -3.74 31 0 31 C0 24.4 0 17.8 0 11 C-3.63 11 -7.26 11 -11 11 Z M-22 32 C-22 42.56 -22 53.12 -22 64 C-18.7 64 -15.4 64 -12 64 C-12 53.44 -12 42.88 -12 32 C-15.3 32 -18.6 32 -22 32 Z " fill="#79776F" transform="translate(304,41)"/>
<path d="M0 0 C6.93 0 13.86 0 21 0 C21 2.97 21 5.94 21 9 C14.07 9 7.14 9 0 9 C0 6.03 0 3.06 0 0 Z " fill="#020102" transform="translate(391,420)"/>
<path d="M0 0 C3.3 0 6.6 0 10 0 C10 3.63 10 7.26 10 11 C13.96 11 17.92 11 22 11 C22 14.3 22 17.6 22 21 C25.63 21 29.26 21 33 21 C33 24.3 33 27.6 33 31 C39.93 31 46.86 31 54 31 C54 34.63 54 38.26 54 42 C53.67 42 53.34 42 53 42 C53 38.7 53 35.4 53 32 C46.07 32 39.14 32 32 32 C32 28.7 32 25.4 32 22 C27.05 22.33 22.1 22.66 17 23 C16.34 21.35 15.68 19.7 15 18 C13.34 17.31 11.68 16.64 10 16 C8.78 12.8 8.9 9.64 8.94 6.25 C8.95 5.27 8.96 4.28 8.96 3.27 C8.98 2.52 8.99 1.77 9 1 C6.03 1 3.06 1 0 1 C0 0.67 0 0.34 0 0 Z " fill="#E1E1DE" transform="translate(390,41)"/>
<path d="M0 0 C2.97 0 5.94 0 9 0 C9 6.6 9 13.2 9 20 C6.03 20 3.06 20 0 20 C0 13.4 0 6.8 0 0 Z " fill="#040202" transform="translate(445,376)"/>
<path d="M0 0 C0 3 0 3 -1 6 C-3.77 7.38 -6.01 7.11 -9.1 7.1 C-10.31 7.09 -11.52 7.09 -12.77 7.09 C-14.04 7.08 -15.32 7.07 -16.62 7.06 C-17.9 7.06 -19.18 7.05 -20.5 7.05 C-23.67 7.04 -26.83 7.02 -30 7 C-30 5.02 -30 3.04 -30 1 C-23.73 1 -17.46 1 -11 1 C-11 1.99 -11 2.98 -11 4 C-10.34 4 -9.68 4 -9 4 C-8.88 3.36 -8.75 2.72 -8.62 2.06 C-8.32 1.04 -8.32 1.04 -8 0 C-5.14 -1.43 -3.07 -0.6 0 0 Z " fill="#000001" transform="translate(475,75)"/>
<path d="M0 0 C14.85 0 29.7 0 45 0 C45 0.33 45 0.66 45 1 C30.81 1 16.62 1 2 1 C2 8.26 2 15.52 2 23 C1.67 23 1.34 23 1 23 C1 19.04 1 15.08 1 11 C-5.6 11 -12.2 11 -19 11 C-19 18.26 -19 25.52 -19 33 C-19.33 33 -19.66 33 -20 33 C-20 29.7 -20 26.4 -20 23 C-26.6 23 -33.2 23 -40 23 C-40 22.67 -40 22.34 -40 22 C-33.73 22 -27.46 22 -21 22 C-21 17.71 -21 13.42 -21 9 C-22.32 9 -23.64 9 -25 9 C-24.34 7.68 -23.68 6.36 -23 5 C-20.53 6.15 -18.95 7.05 -17 9 C-14.1 9.31 -11.28 9.51 -8.38 9.62 C-7.57 9.66 -6.77 9.7 -5.95 9.74 C-3.96 9.84 -1.98 9.92 0 10 C0 6.7 0 3.4 0 0 Z " fill="#827C70" transform="translate(345,18)"/>
<path d="M0 0 C0.66 0 1.32 0 2 0 C2.33 5.94 2.66 11.88 3 18 C5.31 18 7.62 18 10 18 C10.33 17.34 10.66 16.68 11 16 C15.71 23.06 12.81 34.87 12 43 C14.97 43 17.94 43 21 43 C21 43.33 21 43.66 21 44 C17.7 44 14.4 44 11 44 C11 36.74 11 29.48 11 22 C7.7 22 4.4 22 1 22 C1 29.26 1 36.52 1 44 C0.67 44 0.34 44 0 44 C0 36.74 0 29.48 0 22 C-3.3 22 -6.6 22 -10 22 C-10 21.67 -10 21.34 -10 21 C-6.7 21 -3.4 21 0 21 C0 14.07 0 7.14 0 0 Z " fill="#92A6B4" transform="translate(109,321)"/>
<path d="M0 0 C0.33 0 0.66 0 1 0 C1.02 4.54 1.04 9.08 1.05 13.62 C1.06 15.16 1.07 16.71 1.08 18.25 C1.09 20.47 1.09 22.69 1.1 24.9 C1.1 25.6 1.11 26.29 1.11 27.01 C1.11 28.67 1.06 30.34 1 32 C0 33 0 33 -2.29 33.1 C-4.86 33.07 -7.43 33.03 -10 33 C-10 29.37 -10 25.74 -10 22 C-7.03 22 -4.06 22 -1 22 C-0.67 14.74 -0.34 7.48 0 0 Z " fill="#CAF5EE" transform="translate(153,245)"/>
<path d="M0 0 C3.96 0 7.92 0 12 0 C12 3.96 12 7.92 12 12 C8.04 12 4.08 12 0 12 C0 8.04 0 4.08 0 0 Z " fill="#030303" transform="translate(184,245)"/>
<path d="M0 0 C3.63 0 7.26 0 11 0 C11 3.96 11 7.92 11 12 C7.7 12 4.4 12 1 12 C1 15.63 1 19.26 1 23 C0.67 23 0.34 23 0 23 C0 15.41 0 7.82 0 0 Z " fill="#BDCFDA" transform="translate(99,245)"/>
<path d="M0 0 C4.29 0 8.58 0 13 0 C13.1 7.71 13.1 7.71 13 10 C12 11 12 11 9.28 11.1 C7.62 11.08 7.62 11.08 5.94 11.06 C4.83 11.05 3.73 11.04 2.59 11.04 C1.31 11.02 1.31 11.02 0 11 C0 7.37 0 3.74 0 0 Z " fill="#AC7462" transform="translate(184,278)"/>
<path d="M0 0 C3.63 0 7.26 0 11 0 C10.67 3.3 10.34 6.6 10 10 C7.03 10 4.06 10 1 10 C1 13.63 1 17.26 1 21 C-3.29 21 -7.58 21 -12 21 C-12 17.7 -12 14.4 -12 11 C-10 15 -10 15 -10 20 C-6.7 20 -3.4 20 0 20 C0 13.4 0 6.8 0 0 Z " fill="#7DCDC4" transform="translate(142,257)"/>
<path d="M0 0 C7.26 0 14.52 0 22 0 C22 0.33 22 0.66 22 1 C15.4 1 8.8 1 2 1 C2 4.3 2 7.6 2 11 C5.3 11 8.6 11 12 11 C11.67 11.99 11.34 12.98 11 14 C8.69 13.67 6.38 13.34 4 13 C4.34 15.97 4.34 15.97 5 19 C5.66 19.33 6.32 19.66 7 20 C7 20.66 7 21.32 7 22 C6.34 22 5.68 22 5 22 C3.99 25.62 3.5 29.28 3 33 C2.67 33 2.34 33 2 33 C1.09 25.63 0.91 18.43 1 11 C-2.63 11 -6.26 11 -10 11 C-10 10.67 -10 10.34 -10 10 C-6.7 10 -3.4 10 0 10 C0 6.7 0 3.4 0 0 Z " fill="#719298" transform="translate(195,234)"/>
<path d="M0 0 C3.3 0 6.6 0 10 0 C10 3.96 10 7.92 10 12 C6.7 12 3.4 12 0 12 C0 8.04 0 4.08 0 0 Z " fill="#181715" transform="translate(315,407)"/>
<path d="M0 0 C3.3 0 6.6 0 10 0 C10 3.96 10 7.92 10 12 C6.7 12 3.4 12 0 12 C0 8.04 0 4.08 0 0 Z " fill="#100E0D" transform="translate(197,191)"/>
<path d="M0 0 C3.3 0 6.6 0 10 0 C10 3.96 10 7.92 10 12 C6.7 12 3.4 12 0 12 C0 8.04 0 4.08 0 0 Z " fill="#100F0F" transform="translate(477,83)"/>
<path d="M0 0 C3.3 0 6.6 0 10 0 C10 3.96 10 7.92 10 12 C6.7 12 3.4 12 0 12 C0 8.04 0 4.08 0 0 Z " fill="#0F0E0C" transform="translate(390,29)"/>
<path d="M0 0 C3.3 0 6.6 0 10 0 C10.03 1.81 10.05 3.62 10.06 5.44 C10.07 6.45 10.09 7.46 10.1 8.5 C10 11 10 11 9 12 C6 12.14 3.01 12.04 0 12 C0 8.04 0 4.08 0 0 Z " fill="#FDFCF7" transform="translate(99,191)"/>
<path d="M0 0 C3.3 0 6.6 0 10 0 C10 10.23 10 20.46 10 31 C6.7 31 3.4 31 0 31 C0 20.77 0 10.54 0 0 Z M2 1 C0.92 4.24 0.89 6.58 0.9 9.98 C0.91 11.14 0.91 12.31 0.91 13.51 C0.92 14.72 0.93 15.94 0.94 17.19 C0.94 18.41 0.95 19.64 0.95 20.9 C0.96 23.94 0.98 26.97 1 30 C3.64 30 6.28 30 9 30 C9 20.76 9 11.52 9 2 C8.34 2 7.68 2 7 2 C6.67 7.94 6.34 13.88 6 20 C6 14.39 6 8.78 6 3 C4.68 2.34 3.36 1.68 2 1 Z " fill="#161512" transform="translate(78,268)"/>
<path d="M0 0 C0.33 0 0.66 0 1 0 C1 10.56 1 21.12 1 32 C3.64 32 6.28 32 9 32 C9 34.97 9 37.94 9 41 C4.55 41.5 4.55 41.5 0 42 C0 28.14 0 14.28 0 0 Z " fill="#A28B86" transform="translate(99,203)"/>
<path d="M0 0 C3.63 0 7.26 0 11 0 C11 3.3 11 6.6 11 10 C7.37 10 3.74 10 0 10 C0 6.7 0 3.4 0 0 Z " fill="#090807" transform="translate(185,494)"/>
<path d="M0 0 C3.63 0 7.26 0 11 0 C11 3.3 11 6.6 11 10 C7.37 10 3.74 10 0 10 C0 6.7 0 3.4 0 0 Z " fill="#030506" transform="translate(239,440)"/>
<path d="M0 0 C3.63 0 7.26 0 11 0 C11 3.3 11 6.6 11 10 C7.37 10 3.74 10 0 10 C0 6.7 0 3.4 0 0 Z " fill="#070708" transform="translate(293,430)"/>
<path d="M0 0 C3.63 0 7.26 0 11 0 C11 3.3 11 6.6 11 10 C7.37 10 3.74 10 0 10 C0 6.7 0 3.4 0 0 Z " fill="#525F66" transform="translate(239,430)"/>
<path d="M0 0 C3.63 0 7.26 0 11 0 C11 3.3 11 6.6 11 10 C7.37 10 3.74 10 0 10 C0 6.7 0 3.4 0 0 Z " fill="#070606" transform="translate(131,376)"/>
<path d="M0 0 C6.2 -0.17 11.15 -0.04 17 2 C17 2.66 17 3.32 17 4 C13.31 5.18 9.85 5.21 6 5 C5.01 4.34 4.02 3.68 3 3 C3.19 3.6 3.37 4.2 3.56 4.81 C4 7 4 7 3 10 C8.61 10 14.22 10 20 10 C20 7.03 20 4.06 20 1 C20.33 1 20.66 1 21 1 C21 4.3 21 7.6 21 11 C14.07 11 7.14 11 0 11 C0 7.37 0 3.74 0 0 Z " fill="#161613" transform="translate(444,267)"/>
<path d="M0 0 C3.63 0 7.26 0 11 0 C11 3.3 11 6.6 11 10 C7.37 10 3.74 10 0 10 C0 6.7 0 3.4 0 0 Z " fill="#090906" transform="translate(185,203)"/>
<path d="M0 0 C3.63 0 7.26 0 11 0 C11 3.3 11 6.6 11 10 C7.37 10 3.74 10 0 10 C0 6.7 0 3.4 0 0 Z " fill="#030302" transform="translate(401,116)"/>
<path d="M0 0 C3.63 0 7.26 0 11 0 C11 3.3 11 6.6 11 10 C7.37 10 3.74 10 0 10 C0 6.7 0 3.4 0 0 Z " fill="#090706" transform="translate(401,41)"/>
<path d="M0 0 C3.63 0 7.26 0 11 0 C11 3.3 11 6.6 11 10 C7.7 10 4.4 10 1 10 C0.67 6.7 0.34 3.4 0 0 Z " fill="#59656E" transform="translate(412,419)"/>
<path d="M0 0 C3.3 0 6.6 0 10 0 C10 3.3 10 6.6 10 10 C6.7 10 3.4 10 0 10 C0 6.7 0 3.4 0 0 Z " fill="#010101" transform="translate(423,473)"/>
<path d="M0 0 C3.3 0 6.6 0 10 0 C10 3.3 10 6.6 10 10 C6.7 10 3.4 10 0 10 C0 6.7 0 3.4 0 0 Z " fill="#0B0B0B" transform="translate(305,419)"/>
<path d="M0 0 C3.3 0 6.6 0 10 0 C10 3.63 10 7.26 10 11 C7.03 11 4.06 11 1 11 C0.67 7.37 0.34 3.74 0 0 Z " fill="#9EB7C8" transform="translate(304,407)"/>
<path d="M0 0 C3.3 0 6.6 0 10 0 C10 3.3 10 6.6 10 10 C6.7 10 3.4 10 0 10 C0 6.7 0 3.4 0 0 Z " fill="#111416" transform="translate(455,397)"/>
<path d="M0 0 C3.3 0 6.6 0 10 0 C10 3.3 10 6.6 10 10 C6.7 10 3.4 10 0 10 C0 6.7 0 3.4 0 0 Z " fill="#010200" transform="translate(153,397)"/>
<path d="M0 0 C3.3 0 6.6 0 10 0 C10 3.3 10 6.6 10 10 C6.7 10 3.4 10 0 10 C0 6.7 0 3.4 0 0 Z " fill="#0E1215" transform="translate(143,386)"/>
<path d="M0 0 C3.3 0 6.6 0 10 0 C10 3.3 10 6.6 10 10 C6.7 10 3.4 10 0 10 C0 6.7 0 3.4 0 0 Z " fill="#F2DBD3" transform="translate(153,322)"/>
<path d="M0 0 C3.3 0 6.6 0 10 0 C10 3.3 10 6.6 10 10 C6.7 10 3.4 10 0 10 C0 6.7 0 3.4 0 0 Z " fill="#75787B" transform="translate(228,278)"/>
<path d="M0 0 C3.3 0 6.6 0 10 0 C10 3.3 10 6.6 10 10 C6.7 10 3.4 10 0 10 C0 6.7 0 3.4 0 0 Z " fill="#0B0B0B" transform="translate(434,278)"/>
<path d="M0 0 C3.3 0 6.6 0 10 0 C10 3.3 10 6.6 10 10 C6.7 10 3.4 10 0 10 C0 6.7 0 3.4 0 0 Z " fill="#0B0B0B" transform="translate(477,214)"/>
<path d="M0 0 C3.3 0 6.6 0 10 0 C10 3.3 10 6.6 10 10 C6.7 10 3.4 10 0 10 C0 6.7 0 3.4 0 0 Z " fill="#0C0B08" transform="translate(390,203)"/>
<path d="M0 0 C3.3 0 6.6 0 10 0 C10 3.3 10 6.6 10 10 C6.7 10 3.4 10 0 10 C0 6.7 0 3.4 0 0 Z " fill="#0D0A07" transform="translate(228,170)"/>
<path d="M0 0 C3.3 0 6.6 0 10 0 C10 3.3 10 6.6 10 10 C6.7 10 3.4 10 0 10 C0 6.7 0 3.4 0 0 Z " fill="#0C0B08" transform="translate(488,116)"/>
<path d="M0 0 C3.3 0 6.6 0 10 0 C10 3.3 10 6.6 10 10 C6.7 10 3.4 10 0 10 C0 6.7 0 3.4 0 0 Z " fill="#0B0C0A" transform="translate(326,116)"/>
<path d="M0 0 C3.3 0 6.6 0 10 0 C10 3.3 10 6.6 10 10 C6.7 10 3.4 10 0 10 C0 6.7 0 3.4 0 0 Z " fill="#010203" transform="translate(477,106)"/>
<path d="M0 0 C3.3 0 6.6 0 10 0 C10 3.3 10 6.6 10 10 C6.7 10 3.4 10 0 10 C0 6.7 0 3.4 0 0 Z " fill="#010102" transform="translate(336,106)"/>
<path d="M0 0 C3.3 0 6.6 0 10 0 C10 3.3 10 6.6 10 10 C6.7 10 3.4 10 0 10 C0 6.7 0 3.4 0 0 Z " fill="#0C0B08" transform="translate(390,106)"/>
<path d="M0 0 C3.3 0 6.6 0 10 0 C10 3.3 10 6.6 10 10 C6.7 10 3.4 10 0 10 C0 6.7 0 3.4 0 0 Z " fill="#0D0A07" transform="translate(488,95)"/>
<path d="M0 0 C3.3 0 6.6 0 10 0 C10 3.3 10 6.6 10 10 C6.7 10 3.4 10 0 10 C0 6.7 0 3.4 0 0 Z " fill="#020100" transform="translate(413,52)"/>
<path d="M0 0 C3.3 0 6.6 0 10 0 C10.1 6.93 10.1 6.93 10 9 C9 10 9 10 6.93 10.1 C3.47 10.05 3.47 10.05 0 10 C0 6.7 0 3.4 0 0 Z " fill="#C9FAF4" transform="translate(207,257)"/>
<path d="M0 0 C2.47 0.5 2.47 0.5 5 1 C5.33 2.32 5.66 3.64 6 5 C6.66 5 7.32 5 8 5 C8 7.97 8 10.94 8 14 C5.36 14 2.72 14 0 14 C0 9.38 0 4.76 0 0 Z " fill="#010001" transform="translate(198,479)"/>
<path d="M0 0 C2.97 0 5.94 0 9 0 C9 3.3 9 6.6 9 10 C6.03 10 3.06 10 0 10 C0 6.7 0 3.4 0 0 Z " fill="#020101" transform="translate(229,451)"/>
<path d="M0 0 C3.3 0 6.6 0 10 0 C10 7.26 10 14.52 10 22 C9.34 22 8.68 22 8 22 C7.67 16.39 7.34 10.78 7 5 C5.35 4.67 3.7 4.34 2 4 C1.67 9.94 1.34 15.88 1 22 C0.67 22 0.34 22 0 22 C0 14.74 0 7.48 0 0 Z " fill="#111517" transform="translate(89,299)"/>
<path d="M0 0 C2.97 0 5.94 0 9 0 C9 3.3 9 6.6 9 10 C6.03 10 3.06 10 0 10 C0 6.7 0 3.4 0 0 Z " fill="#FBF9F7" transform="translate(229,181)"/>
<path d="M0 0 C6.93 0 13.86 0 21 0 C21 3.3 21 6.6 21 10 C14.07 10 7.14 10 0 10 C0 6.7 0 3.4 0 0 Z M1 3 C1 4.98 1 6.96 1 9 C7.27 9 13.54 9 20 9 C19.34 6.69 18.68 4.38 18 2 C15.54 1.97 13.08 1.95 10.62 1.94 C9.58 1.92 9.58 1.92 8.51 1.91 C4.63 1.82 4.63 1.82 1 3 Z " fill="#1A1715" transform="translate(261,235)"/>
<path d="M0 0 C0.33 0 0.66 0 1 0 C1 3.3 1 6.6 1 10 C4.63 10 8.26 10 12 10 C12 10.33 12 10.66 12 11 C8.37 11 4.74 11 1 11 C1 14.3 1 17.6 1 21 C0.67 21 0.34 21 0 21 C0 17.7 0 14.4 0 11 C-10.23 11 -20.46 11 -31 11 C-31 14.3 -31 17.6 -31 21 C-31.33 21 -31.66 21 -32 21 C-32 17.7 -32 14.4 -32 11 C-35.3 11 -38.6 11 -42 11 C-42 10.67 -42 10.34 -42 10 C-28.14 10 -14.28 10 0 10 C0 6.7 0 3.4 0 0 Z " fill="#7A776F" transform="translate(184,494)"/>
<path d="M0 0 C0.33 0 0.66 0 1 0 C1 3.3 1 6.6 1 10 C7.6 10 14.2 10 21 10 C21 6.7 21 3.4 21 0 C21.33 0 21.66 0 22 0 C22 3.3 22 6.6 22 10 C25.3 10 28.6 10 32 10 C32 10.33 32 10.66 32 11 C28.7 11 25.4 11 22 11 C22 14.3 22 17.6 22 21 C21.67 21 21.34 21 21 21 C21 17.7 21 14.4 21 11 C14.4 11 7.8 11 1 11 C1 14.3 1 17.6 1 21 C0.67 21 0.34 21 0 21 C0 17.7 0 14.4 0 11 C-3.3 11 -6.6 11 -10 11 C-10 10.67 -10 10.34 -10 10 C-6.7 10 -3.4 10 0 10 C0 6.7 0 3.4 0 0 Z " fill="#5A5F5D" transform="translate(433,473)"/>
<path d="M0 0 C2.97 0 5.94 0 9 0 C9 2.97 9 5.94 9 9 C6.03 9 3.06 9 0 9 C0 6.03 0 3.06 0 0 Z " fill="#4C5B66" transform="translate(251,420)"/>
<path d="M0 0 C3.3 0 6.6 0 10 0 C10 10.89 10 21.78 10 33 C6.7 33 3.4 33 0 33 C0.99 32.01 1.98 31.02 3 30 C2.67 29.34 2.34 28.68 2 28 C5.47 27.5 5.47 27.5 9 27 C9 18.42 9 9.84 9 1 C6.03 1 3.06 1 0 1 C0 0.67 0 0.34 0 0 Z " fill="#EDEEED" transform="translate(228,245)"/>
<path d="M0 0 C2.97 0 5.94 0 9 0 C9 2.97 9 5.94 9 9 C6.03 9 3.06 9 0 9 C0 6.03 0 3.06 0 0 Z " fill="#010302" transform="translate(121,258)"/>
<path d="M0 0 C2.97 0 5.94 0 9 0 C9 2.97 9 5.94 9 9 C6.03 9 3.06 9 0 9 C0 6.03 0 3.06 0 0 Z " fill="#6B7277" transform="translate(445,258)"/>
<path d="M0 0 C2.97 0 5.94 0 9 0 C9 2.97 9 5.94 9 9 C6.03 9 3.06 9 0 9 C0 6.03 0 3.06 0 0 Z " fill="#040202" transform="translate(380,214)"/>
<path d="M0 0 C2.97 0 5.94 0 9 0 C9 2.97 9 5.94 9 9 C6.03 9 3.06 9 0 9 C0 6.03 0 3.06 0 0 Z " fill="#FDFCF7" transform="translate(110,204)"/>
<path d="M0 0 C2.97 0 5.94 0 9 0 C9 2.97 9 5.94 9 9 C6.03 9 3.06 9 0 9 C0 6.03 0 3.06 0 0 Z " fill="#050303" transform="translate(100,181)"/>
<path d="M0 0 C6.93 0 13.86 0 21 0 C21 3.3 21 6.6 21 10 C14.07 10 7.14 10 0 10 C0 6.7 0 3.4 0 0 Z M2 2 C1.67 4.31 1.34 6.62 1 9 C7.27 9 13.54 9 20 9 C20 6.69 20 4.38 20 2 C14.06 2 8.12 2 2 2 Z " fill="#1D1916" transform="translate(207,181)"/>
<path d="M0 0 C0.33 0 0.66 0 1 0 C1 7.26 1 14.52 1 22 C4.3 22 7.6 22 11 22 C11 22.33 11 22.66 11 23 C7.7 23 4.4 23 1 23 C1 29.6 1 36.2 1 43 C4.3 43 7.6 43 11 43 C11 43.33 11 43.66 11 44 C7.37 44 3.74 44 0 44 C0 37.07 0 30.14 0 23 C-3.3 23 -6.6 23 -10 23 C-10 22.67 -10 22.34 -10 22 C-6.7 22 -3.4 22 0 22 C0 14.74 0 7.48 0 0 Z " fill="#76736D" transform="translate(487,83)"/>
<path d="M0 0 C2.47 1.15 4.05 2.05 6 4 C5.01 4.5 5.01 4.5 4 5 C4 12.59 4 20.18 4 28 C3.67 28 3.34 28 3 28 C3 24.7 3 21.4 3 18 C-3.6 18 -10.2 18 -17 18 C-17 17.67 -17 17.34 -17 17 C-10.73 17 -4.46 17 2 17 C2 12.71 2 8.42 2 4 C0.68 4 -0.64 4 -2 4 C-1.34 2.68 -0.68 1.36 0 0 Z " fill="#A59D8D" transform="translate(322,23)"/>
<path d="M0 0 C0.33 0 0.66 0 1 0 C1 10.56 1 21.12 1 32 C4.3 32 7.6 32 11 32 C11 32.33 11 32.66 11 33 C7.7 33 4.4 33 1 33 C1 39.6 1 46.2 1 53 C0.67 53 0.34 53 0 53 C0 46.4 0 39.8 0 33 C-3.3 33 -6.6 33 -10 33 C-10 32.67 -10 32.34 -10 32 C-6.7 32 -3.4 32 0 32 C0 21.44 0 10.88 0 0 Z " fill="#6F6F6A" transform="translate(163,397)"/>
<path d="M0 0 C0.33 0 0.66 0 1 0 C1 6.6 1 13.2 1 20 C3.97 20 6.94 20 10 20 C10 13.4 10 6.8 10 0 C10.33 0 10.66 0 11 0 C11 6.6 11 13.2 11 20 C14.3 20 17.6 20 21 20 C21 20.33 21 20.66 21 21 C17.7 21 14.4 21 11 21 C11 24.3 11 27.6 11 31 C10.67 31 10.34 31 10 31 C10 27.7 10 24.4 10 21 C6.7 21 3.4 21 0 21 C0 14.07 0 7.14 0 0 Z " fill="#565753" transform="translate(444,376)"/>
<path d="M0 0 C0.33 0 0.66 0 1 0 C1 3.3 1 6.6 1 10 C4.3 10 7.6 10 11 10 C11 10.33 11 10.66 11 11 C7.7 11 4.4 11 1 11 C1 14.3 1 17.6 1 21 C-2.3 21 -5.6 21 -9 21 C-9 24.3 -9 27.6 -9 31 C-9.33 31 -9.66 31 -10 31 C-10 24.07 -10 17.14 -10 10 C-6.7 10 -3.4 10 0 10 C0 6.7 0 3.4 0 0 Z M-9 11 C-9 13.97 -9 16.94 -9 20 C-6.03 20 -3.06 20 0 20 C0 17.03 0 14.06 0 11 C-2.97 11 -5.94 11 -9 11 Z " fill="#696760" transform="translate(389,203)"/>
<path d="M0 0 C0.33 0 0.66 0 1 0 C1 7.26 1 14.52 1 22 C4.63 22 8.26 22 12 22 C12 18.7 12 15.4 12 12 C12.33 12 12.66 12 13 12 C13 15.3 13 18.6 13 22 C16.3 22 19.6 22 23 22 C23 22.33 23 22.66 23 23 C19.7 23 16.4 23 13 23 C13 26.3 13 29.6 13 33 C12.67 33 12.34 33 12 33 C12 29.7 12 26.4 12 23 C8.04 23 4.08 23 0 23 C0 15.41 0 7.82 0 0 Z " fill="#757269" transform="translate(400,29)"/>
<path d="M0 0 C3.96 0 7.92 0 12 0 C12 3.96 12 7.92 12 12 C8.04 12 4.08 12 0 12 C0 8.04 0 4.08 0 0 Z M1 1 C1 4.3 1 7.6 1 11 C3.31 11 5.62 11 8 11 C8.99 7.7 9.98 4.4 11 1 C7.7 1 4.4 1 1 1 Z " fill="#262B2B" transform="translate(184,245)"/>
<path d="M0 0 C0.33 0 0.66 0 1 0 C1 3.3 1 6.6 1 10 C4.3 10 7.6 10 11 10 C11 10.33 11 10.66 11 11 C7.7 11 4.4 11 1 11 C1 14.3 1 17.6 1 21 C0.67 21 0.34 21 0 21 C0 17.7 0 14.4 0 11 C-3.63 11 -7.26 11 -11 11 C-11 17.6 -11 24.2 -11 31 C-11.33 31 -11.66 31 -12 31 C-12 24.07 -12 17.14 -12 10 C-8.04 10 -4.08 10 0 10 C0 6.7 0 3.4 0 0 Z " fill="#5C5E5C" transform="translate(304,419)"/>
<path d="M0 0 C0.33 0 0.66 0 1 0 C1 6.6 1 13.2 1 20 C4.3 20 7.6 20 11 20 C11 20.33 11 20.66 11 21 C7.7 21 4.4 21 1 21 C1 28.26 1 35.52 1 43 C0.67 43 0.34 43 0 43 C0 35.74 0 28.48 0 21 C-3.3 21 -6.6 21 -10 21 C-10 20.67 -10 20.34 -10 20 C-6.7 20 -3.4 20 0 20 C0 13.4 0 6.8 0 0 Z " fill="#5A5E5C" transform="translate(109,322)"/>
<path d="M0 0 C0.33 0 0.66 0 1 0 C1 3.3 1 6.6 1 10 C3.64 10 6.28 10 9 10 C9 10.33 9 10.66 9 11 C6.36 11 3.72 11 1 11 C1 14.63 1 18.26 1 22 C0.67 22 0.34 22 0 22 C0 18.37 0 14.74 0 11 C-6.6 11 -13.2 11 -20 11 C-20 14.63 -20 18.26 -20 22 C-20.33 22 -20.66 22 -21 22 C-21 18.04 -21 14.08 -21 10 C-14.07 10 -7.14 10 0 10 C0 6.7 0 3.4 0 0 Z " fill="#CEC7C2" transform="translate(228,181)"/>
<path d="M0 0 C0.33 0 0.66 0 1 0 C1.07 0.92 1.07 0.92 1.15 1.86 C1.22 2.67 1.3 3.48 1.38 4.31 C1.44 5.11 1.51 5.91 1.59 6.74 C1.9 9.27 1.9 9.27 4 12 C3.98 14.26 3.98 14.26 3.62 16.69 C3.46 17.9 3.46 17.9 3.29 19.14 C3.15 20.06 3.15 20.06 3 21 C2.34 21 1.68 21 1 21 C1 24.3 1 27.6 1 31 C0.67 31 0.34 31 0 31 C0 27.7 0 24.4 0 21 C-3.3 21 -6.6 21 -10 21 C-10 20.67 -10 20.34 -10 20 C-6.37 20 -2.74 20 1 20 C0.67 18.68 0.34 17.36 0 16 C0.94 13.75 0.94 13.75 2 12 C0.68 11.67 -0.64 11.34 -2 11 C-1.34 11 -0.68 11 0 11 C0 7.37 0 3.74 0 0 Z " fill="#B4AB97" transform="translate(498,95)"/>
<path d="M0 0 C0.33 0 0.66 0 1 0 C1 2.97 1 5.94 1 9 C2.65 8.86 4.29 8.71 5.94 8.56 C6.85 8.48 7.77 8.4 8.71 8.32 C10.96 8.24 10.96 8.24 12 7 C14.33 6.96 16.67 6.96 19 7 C19 7.66 19 8.32 19 9 C17.02 9 15.04 9 13 9 C12.67 12.96 12.34 16.92 12 21 C14.97 21 17.94 21 21 21 C21 21.33 21 21.66 21 22 C17.7 22 14.4 22 11 22 C11 18.04 11 14.08 11 10 C7.37 10 3.74 10 0 10 C0 6.7 0 3.4 0 0 Z " fill="#B4AD98" transform="translate(477,73)"/>
<path d="M0 0 C1.98 0 3.96 0 6 0 C6.33 2.64 6.66 5.28 7 8 C4.69 8.66 2.38 9.32 0 10 C0 6.7 0 3.4 0 0 Z " fill="#000002" transform="translate(316,408)"/>
<path d="M0 0 C1.98 0 3.96 0 6 0 C6 1.65 6 3.3 6 5 C6.66 5.33 7.32 5.66 8 6 C8 6.99 8 7.98 8 9 C5.36 9 2.72 9 0 9 C0 6.03 0 3.06 0 0 Z " fill="#020101" transform="translate(121,366)"/>
<path d="M0 0 C3.3 0 6.6 0 10 0 C10 3.63 10 7.26 10 11 C9.34 11 8.68 11 8 11 C7.67 8.69 7.34 6.38 7 4 C5.35 4 3.7 4 2 4 C1.67 6.64 1.34 9.28 1 12 C0.67 12 0.34 12 0 12 C0 8.04 0 4.08 0 0 Z " fill="#E7E5E2" transform="translate(99,191)"/>
<path d="M0 0 C0.99 0.66 1.98 1.32 3 2 C2.34 3.32 1.68 4.64 1 6 C1 5.34 1 4.68 1 4 C-1.76 6.4 -2.04 7.16 -3 11 C0.96 11 4.92 11 9 11 C10.25 18.62 10.25 18.62 8 22 C8 18.7 8 15.4 8 12 C4.04 12 0.08 12 -4 12 C-4.33 8.37 -4.66 4.74 -5 1 C-2.52 1.5 -2.52 1.5 0 2 C0 1.34 0 0.68 0 0 Z " fill="#ECEBEB" transform="translate(405,104)"/>
<path d="M0 0 C1.65 0.33 3.3 0.66 5 1 C4.01 1.66 3.02 2.32 2 3 C1.64 4.98 1.64 4.98 1.81 7.12 C1.87 8.4 1.94 9.68 2 11 C0.35 11.66 -1.3 12.32 -3 13 C-3 12.67 -3 12.34 -3 12 C-5.31 11.67 -7.62 11.34 -10 11 C-10 14.63 -10 18.26 -10 22 C-10.33 22 -10.66 22 -11 22 C-11 18.04 -11 14.08 -11 10 C-7.37 10 -3.74 10 0 10 C0 6.7 0 3.4 0 0 Z " fill="#B4AC9A" transform="translate(239,451)"/>
<path d="M0 0 C0.33 0 0.66 0 1 0 C1 2.97 1 5.94 1 9 C2.98 9 4.96 9 7 9 C6.67 6.03 6.34 3.06 6 0 C7.32 0 8.64 0 10 0 C10 3.3 10 6.6 10 10 C6.7 10 3.4 10 0 10 C0 6.7 0 3.4 0 0 Z " fill="#1A1816" transform="translate(477,106)"/>
<path d="M0 0 C2.64 0 5.28 0 8 0 C8 2.97 8 5.94 8 9 C7.67 8.34 7.34 7.68 7 7 C6.07 6.78 6.07 6.78 5.12 6.56 C2.58 5.89 1.59 5.07 0 3 C0 2.01 0 1.02 0 0 Z " fill="#020000" transform="translate(456,397)"/>
<path d="M0 0 C3.3 0 6.6 0 10 0 C9.67 0.66 9.34 1.32 9 2 C6.69 2 4.38 2 2 2 C1.67 8.93 1.34 15.86 1 23 C0.67 23 0.34 23 0 23 C0 15.41 0 7.82 0 0 Z " fill="#B1B9C0" transform="translate(99,245)"/>
<path d="M0 0 C0.33 0 0.66 0 1 0 C1 1.98 1 3.96 1 6 C1.66 5.34 2.32 4.68 3 4 C3.66 3.34 4.32 2.68 5 2 C5 2.99 5 3.98 5 5 C5.66 5.33 6.32 5.66 7 6 C6.34 6 5.68 6 5 6 C5 6.66 5 7.32 5 8 C6.32 8.33 7.64 8.66 9 9 C9 6.03 9 3.06 9 0 C9.33 0 9.66 0 10 0 C10 3.3 10 6.6 10 10 C6.7 10 3.4 10 0 10 C0 6.7 0 3.4 0 0 Z " fill="#1C1B19" transform="translate(413,52)"/>
<path d="M0 0 C3.3 0 6.6 0 10 0 C10 3.3 10 6.6 10 10 C7.75 7.31 6.12 5.35 5 2 C3.68 1.67 2.36 1.34 1 1 C1 3.97 1 6.94 1 10 C0.67 10 0.34 10 0 10 C0 6.7 0 3.4 0 0 Z " fill="#131616" transform="translate(423,473)"/>
<path d="M0 0 C2.06 0.44 2.06 0.44 4 1 C4.33 3.31 4.66 5.62 5 8 C2.36 8 -0.28 8 -3 8 C-3 7.34 -3 6.68 -3 6 C-2.34 6 -1.68 6 -1 6 C-1.03 4.79 -1.03 4.79 -1.06 3.56 C-1 1 -1 1 0 0 Z " fill="#020000" transform="translate(147,388)"/>
<path d="M0 0 C0 3.3 0 6.6 0 10 C-6.6 10 -13.2 10 -20 10 C-20 9.67 -20 9.34 -20 9 C-13.73 9 -7.46 9 -1 9 C-1.33 8.01 -1.66 7.02 -2 6 C-2.66 5.67 -3.32 5.34 -4 5 C-4.33 5.99 -4.66 6.98 -5 8 C-3.92 0 -3.92 0 0 0 Z " fill="#191610" transform="translate(271,451)"/>
<path d="M0 0 C3.3 0 6.6 0 10 0 C10 3.3 10 6.6 10 10 C6.7 10 3.4 10 0 10 C0 6.7 0 3.4 0 0 Z M1 1 C1 3.64 1 6.28 1 9 C3.64 9 6.28 9 9 9 C9.25 6.08 9.25 6.08 9 3 C5.77 0.85 4.72 0.8 1 1 Z " fill="#171814" transform="translate(153,397)"/>
<path d="M0 0 C0.33 0 0.66 0 1 0 C1 3.3 1 6.6 1 10 C4.63 10 8.26 10 12 10 C12 10.33 12 10.66 12 11 C8.37 11 4.74 11 1 11 C1 14.3 1 17.6 1 21 C0.67 21 0.34 21 0 21 C0 17.7 0 14.4 0 11 C-2.97 11 -5.94 11 -9 11 C-9 10.67 -9 10.34 -9 10 C-6.03 10 -3.06 10 0 10 C0 6.7 0 3.4 0 0 Z " fill="#5D6160" transform="translate(130,365)"/>
<path d="M0 0 C3.3 0 6.6 0 10 0 C10 3.63 10 7.26 10 11 C8.35 11.33 6.7 11.66 5 12 C5 11.01 5 10.02 5 9 C5.47 8.55 5.95 8.09 6.44 7.62 C8.45 5.54 8.62 3.82 9 1 C6.03 1 3.06 1 0 1 C0 0.67 0 0.34 0 0 Z " fill="#ECEDE9" transform="translate(477,116)"/>
<path d="M0 0 C0.33 0 0.66 0 1 0 C1 2.97 1 5.94 1 9 C2.65 8.67 4.3 8.34 6 8 C5.67 7.01 5.34 6.02 5 5 C5.66 5 6.32 5 7 5 C7.33 5.66 7.66 6.32 8 7 C8.33 4.69 8.66 2.38 9 0 C9.33 0 9.66 0 10 0 C10 3.3 10 6.6 10 10 C6.7 10 3.4 10 0 10 C0 6.7 0 3.4 0 0 Z " fill="#1D1A17" transform="translate(336,106)"/>
<path d="M0 0 C1.65 0 3.3 0 5 0 C5 1.98 5 3.96 5 6 C4.34 6 3.68 6 3 6 C2.34 7.32 1.68 8.64 1 10 C0.67 10 0.34 10 0 10 C0 6.7 0 3.4 0 0 Z " fill="#ECECE8" transform="translate(282,235)"/>
<path d="M0 0 C3.63 0 7.26 0 11 0 C11 3.3 11 6.6 11 10 C9.35 10 7.7 10 6 10 C6.66 9.01 7.32 8.02 8 7 C8.66 7 9.32 7 10 7 C10 5.02 10 3.04 10 1 C6.7 1 3.4 1 0 1 C0 0.67 0 0.34 0 0 Z " fill="#1A1917" transform="translate(401,116)"/>
<path d="M0 0 C2.97 0 5.94 0 9 0 C8.67 1.32 8.34 2.64 8 4 C5.36 3.67 2.72 3.34 0 3 C0 2.01 0 1.02 0 0 Z " fill="#CEC2AC" transform="translate(413,474)"/>
<path d="M0 0 C0.33 0 0.66 0 1 0 C1 3.3 1 6.6 1 10 C-1.97 10 -4.94 10 -8 10 C-7.34 9.01 -6.68 8.02 -6 7 C-3.38 6.81 -3.38 6.81 -1 7 C-0.67 4.69 -0.34 2.38 0 0 Z " fill="#18130D" transform="translate(237,451)"/>
</svg>
